<?xml version="1.0" encoding="UTF-8"?>
<svg version="1.1" xmlns="http://www.w3.org/2000/svg" width="237" height="240">
<path d="M0 0 C22.17943728 4.63657503 41.47271761 17.85028084 54.0625 36.625 C66.08234594 56.30132315 69.652838 78.56949223 65.25 101.1875 C59.76756646 122.10664732 47.10554655 140.30912013 28.8125 152 C16.2699283 159.11505886 2.91599 163.81546117 -11.5625 164.4375 C-12.62855469 164.56769531 -13.69460937 164.69789063 -14.79296875 164.83203125 C-18.56635637 165.01874663 -21.04853517 164.85391201 -24.5625 163.4375 C-28.53970512 158.66485386 -30.47725927 153.23580747 -32.5625 147.4375 C-33.06257568 146.09800293 -33.06257568 146.09800293 -33.57275391 144.73144531 C-40.89166725 124.91439698 -45.45822157 104.45122091 -49.58319092 83.77590942 C-49.8589054 82.39445029 -50.13706538 81.01347676 -50.41778564 79.63302612 C-50.80831943 77.7001046 -51.18375075 75.76415056 -51.55859375 73.828125 C-51.77700928 72.71469727 -51.9954248 71.60126953 -52.22045898 70.45410156 C-52.74310197 65.84469637 -51.89025062 62.57629219 -49.55859375 58.6171875 C-49.1517334 57.92254395 -48.74487305 57.22790039 -48.32568359 56.51220703 C-47.88820801 55.78630371 -47.45073242 55.06040039 -47 54.3125 C-46.54963379 53.55694824 -46.09926758 52.80139648 -45.63525391 52.02294922 C-41.93905263 45.89919687 -37.88011969 40.13852028 -33.5625 34.4375 C-32.31187855 32.6671055 -31.06189434 30.8962607 -29.8125 29.125 C-25.21246206 22.80785557 -20.18752685 16.89698255 -14.99365234 11.06494141 C-13.68124012 9.57252587 -12.41058194 8.04366053 -11.14453125 6.51171875 C-5.23889649 -0.20920718 -5.23889649 -0.20920718 0 0 Z " fill="#4E4654" transform="translate(140.5625,56.5625)"/>
<path d="M0 0 C0.66 0.33 1.32 0.66 2 1 C2.52529903 3.73614771 2.9245109 6.40248193 3.25390625 9.1640625 C3.35968491 9.98949554 3.46546356 10.81492859 3.57444763 11.66537476 C3.91241022 14.31757671 4.23767234 16.97116041 4.5625 19.625 C4.78495672 21.39203437 5.00825376 23.15896317 5.23242188 24.92578125 C5.73902056 28.92285924 6.23934838 32.92062151 6.72462463 36.92034912 C6.98649494 38.89800901 7.32143169 40.86558764 7.66015625 42.83154297 C8.12198103 47.13726275 6.49553437 49.86982462 4.4375 53.5 C3.68549412 54.91422492 2.93818412 56.3309557 2.1953125 57.75 C1.63505371 58.81541016 1.63505371 58.81541016 1.06347656 59.90234375 C-1.73205084 65.41638679 -3.87712639 71.20152238 -6 77 C-6.43054688 78.17046875 -6.86109375 79.3409375 -7.3046875 80.546875 C-11.65797384 93.36338262 -13.72795605 106.68626082 -16 120 C-22.7688952 113.39091009 -26.9246476 106.80977121 -30.25 98 C-30.49613037 97.34797607 -30.74226074 96.69595215 -30.99584961 96.02416992 C-38.23799979 75.93764016 -37.20900535 53.12416958 -28.26342773 33.83618164 C-21.50904293 19.9320096 -12.60315405 8.93678196 0 0 Z M-9 25 C-9.33 26.32 -9.66 27.64 -10 29 C-8.68 28.67 -7.36 28.34 -6 28 C-6.99 27.01 -7.98 26.02 -9 25 Z M-7.1875 41.1875 C-9.21667976 42.8815484 -9.21667976 42.8815484 -9.5 45.5 C-9.20609687 48.10852444 -9.20609687 48.10852444 -7.25 49.875 C-5.0996331 51.19585412 -5.0996331 51.19585412 -2.875 50.8125 C-0.80828571 50.05339164 -0.80828571 50.05339164 1 48 C1.41666667 45 1.41666667 45 1 42 C-2.37022521 39.75318319 -3.60026952 39.24014631 -7.1875 41.1875 Z M-22 86 C-21.67 87.32 -21.34 88.64 -21 90 C-20.01 89.67 -19.02 89.34 -18 89 C-18 88.01 -18 87.02 -18 86 C-19.32 86 -20.64 86 -22 86 Z " fill="#5D5663" transform="translate(78,70)"/>
<path d="M0 0 C4.7404535 3.04816258 8.81415595 7.29423733 10.5625 12.7578125 C12.24087836 21.35950158 12.53114445 28.50328961 7.67382812 35.9543457 C5.89073044 38.47006117 4.06679986 40.9490012 2.19628906 43.40039062 C-2.47947699 49.6525578 -5.16381987 56.6900767 -7.7890625 63.984375 C-8.9648313 66.9124186 -10.16209631 69.4343984 -12 72 C-15 72.625 -15 72.625 -18 72 C-20.63617417 68.37609475 -21.93283767 64.54630913 -23.3125 60.3125 C-26.17659519 52.09752038 -30.3278075 45.45769145 -35.1875 38.3125 C-39.61399682 31.67856383 -42.11891883 26.01044159 -41 18 C-38.95522537 9.35839294 -35.46198432 3.46923768 -27.93359375 -1.3125 C-18.57230215 -6.13549102 -9.05851478 -4.88745876 0 0 Z " fill="#90A59B" transform="translate(160,105)"/>
<path d="M0 0 C2.58420667 2.58420667 2.6331792 4.33337617 3.296875 7.9140625 C3.53003418 9.13786621 3.76319336 10.36166992 4.00341797 11.62255859 C4.12473083 12.27472351 4.2460437 12.92688843 4.37103271 13.59881592 C5.01351554 17.03391049 5.6893124 20.4623645 6.3671875 23.890625 C6.57234482 24.92834549 6.57234482 24.92834549 6.78164673 25.98703003 C11.07532884 47.51957753 16.12904954 70.63918655 26.96875 89.92578125 C28 92 28 92 28 95 C12.08428584 92.45883555 -1.33731836 87.10320344 -14 77 C-14.5669458 76.5656665 -15.1338916 76.13133301 -15.71801758 75.68383789 C-18.05715581 73.68874067 -19.77717681 72.17317753 -20.36474609 69.07958984 C-20.3205809 66.80907329 -20.0542397 64.67871295 -19.6875 62.4375 C-19.5735791 61.61032471 -19.4596582 60.78314941 -19.34228516 59.9309082 C-17.27648377 45.97431216 -13.76248479 32.5214127 -9 19.25 C-8.68015137 18.35756592 -8.36030273 17.46513184 -8.03076172 16.5456543 C-5.85156842 10.71084502 -3.17421288 5.35648423 0 0 Z M-2 11 C-2 11.99 -2 12.98 -2 14 C-1.34 14 -0.68 14 0 14 C0 13.01 0 12.02 0 11 C-0.66 11 -1.32 11 -2 11 Z M13 80 C12.34 80.66 11.68 81.32 11 82 C11.08571661 84.09291157 11.08571661 84.09291157 12 86 C12.99 86.33 13.98 86.66 15 87 C15.99 86.01 16.98 85.02 18 84 C17.34 82.68 16.68 81.36 16 80 C15.01 80 14.02 80 13 80 Z " fill="#57505D" transform="translate(86,125)"/>
<path d="M0 0 C-1.26502343 3.68178461 -2.55420838 5.84193811 -5.4375 8.4375 C-11.29192608 14.09222393 -16.10640576 20.52287419 -21 27 C-21.58185059 27.76940918 -22.16370117 28.53881836 -22.76318359 29.33154297 C-24.62124183 31.79828394 -26.46891672 34.27242539 -28.3125 36.75 C-28.88693848 37.51739502 -29.46137695 38.28479004 -30.05322266 39.07543945 C-33.63105759 43.92485207 -36.78037532 48.87888593 -39.72729492 54.13769531 C-40.1472876 54.75225586 -40.56728027 55.36681641 -41 56 C-41.66 56 -42.32 56 -43 56 C-43.69711757 51.48390724 -44.39073505 46.96729488 -45.08129883 42.45019531 C-45.31604546 40.91782592 -45.55170081 39.38559543 -45.78833008 37.85351562 C-47.06488214 29.58426503 -48.2787076 21.34046159 -49 13 C-33.84970775 3.03183896 -18.03961169 -0.94530716 0 0 Z M-41 30 C-40.67958603 32.60280568 -40.67958603 32.60280568 -40 35 C-37.60280568 35.67958603 -37.60280568 35.67958603 -35 36 C-32.73160017 34.16734675 -32.73160017 34.16734675 -32.8125 31.4375 C-32.72996677 29.05310277 -32.72996677 29.05310277 -34 28 C-37.961168 27.60909667 -37.961168 27.60909667 -41 30 Z " fill="#5E5763" transform="translate(129,56)"/>
<path d="M0 0 C4.59217242 2.91729937 7.98218831 6.93178753 10 12 C10.83929822 17.13234576 11.01256752 21.94490734 8.6796875 26.6796875 C5.18009093 31.46613124 1.86549821 34.48306081 -4 36 C-9.4230565 36.7526662 -13.79007655 36.37177555 -18.4296875 33.33984375 C-23.72057643 28.82547832 -25.696402 24.03598003 -26.375 17.25 C-26.2770877 11.40789939 -23.30223128 7.65592604 -19.6015625 3.38671875 C-14.1929377 -1.48653456 -6.81906012 -1.38892249 0 0 Z " fill="#4B4751" transform="translate(153,109)"/>
<path d="M0 0 C2.4609375 -0.43359375 2.4609375 -0.43359375 5.375 -0.4375 C6.33148438 -0.45683594 7.28796875 -0.47617188 8.2734375 -0.49609375 C11 0 11 0 13.3359375 1.32421875 C16.05405572 5.6949018 15.41583751 10.22384771 15.25 15.25 C15.23195312 16.28125 15.21390625 17.3125 15.1953125 18.375 C15.14822712 20.91761064 15.0824805 23.45833162 15 26 C14.01 25.67 13.02 25.34 12 25 C9.94106379 24.77674186 7.87766347 24.59294241 5.8125 24.4375 C4.72582031 24.35371094 3.63914063 24.26992187 2.51953125 24.18359375 C1.68808594 24.12300781 0.85664063 24.06242187 0 24 C0 24.66 0 25.32 0 26 C-0.99 26 -1.98 26 -3 26 C-2.8902432 22.22856018 -2.75958521 18.45812903 -2.625 14.6875 C-2.57859375 13.0797168 -2.57859375 13.0797168 -2.53125 11.43945312 C-2.49257812 10.41142578 -2.45390625 9.38339844 -2.4140625 8.32421875 C-2.3826416 7.37635498 -2.3512207 6.42849121 -2.31884766 5.4519043 C-2 3 -2 3 0 0 Z " fill="#899594" transform="translate(139,113)"/>
<path d="M0 0 C-1.6980388 3.80434921 -4.11138146 7.03400269 -6.5625 10.375 C-10.66546699 16.0158265 -14.50225765 21.77445429 -18.13110352 27.73193359 C-19.03673934 29.18739731 -20.01210685 30.59906531 -21 32 C-21.66 32 -22.32 32 -23 32 C-23.50579714 28.95919579 -24.00480759 25.91753354 -24.5 22.875 C-24.64308594 22.0190625 -24.78617187 21.163125 -24.93359375 20.28125 C-25.65695734 15.80328495 -26.17918816 11.55436565 -26 7 C-25.34 7.66 -24.68 8.32 -24 9 C-23.01 8.01 -22.02 7.02 -21 6 C-20.34 7.65 -19.68 9.3 -19 11 C-17.35 10.67 -15.7 10.34 -14 10 C-14 8.02 -14 6.04 -14 4 C-13.2575 3.896875 -12.515 3.79375 -11.75 3.6875 C-8.96192452 3.1882621 -8.96192452 3.1882621 -7 1.4375 C-4.51091681 -0.35152855 -2.99743256 -0.24978605 0 0 Z " fill="#66606B" transform="translate(109,80)"/>
<path d="M0 0 C0.75282433 5.45797639 1.15819437 10.86571755 1.3125 16.375 C1.34988281 17.55835937 1.38726562 18.74171875 1.42578125 19.9609375 C1 23 1 23 -0.83203125 24.9765625 C-3 26 -3 26 -6 25 C-6.33 21.7 -6.66 18.4 -7 15 C-7.7425 15.37125 -8.485 15.7425 -9.25 16.125 C-12 17 -12 17 -14.3125 16.125 C-14.869375 15.75375 -15.42625 15.3825 -16 15 C-13.11032344 9.87739155 -6.22563349 0 0 0 Z " fill="#4C4450" transform="translate(79,72)"/>
<path d="M0 0 C2.42578125 2.5390625 2.42578125 2.5390625 4 5 C-0.75 6.125 -0.75 6.125 -3 5 C-4.87379605 4.92966231 -6.75001102 4.9156978 -8.625 4.9375 C-10.12933594 4.95103516 -10.12933594 4.95103516 -11.6640625 4.96484375 C-12.43492187 4.97644531 -13.20578125 4.98804687 -14 5 C-15.4807848 7.9615696 -15.35314037 10.83506295 -15.5625 14.125 C-15.64628906 15.40632813 -15.73007813 16.68765625 -15.81640625 18.0078125 C-15.87699219 18.99523437 -15.93757812 19.98265625 -16 21 C-16.33 21 -16.66 21 -17 21 C-17 18.69 -17 16.38 -17 14 C-17.99 14 -18.98 14 -20 14 C-19.67 14.66 -19.34 15.32 -19 16 C-18.95977609 18.3329866 -18.95679753 20.66706666 -19 23 C-19.33 22.34 -19.66 21.68 -20 21 C-20.99 20.67 -21.98 20.34 -23 20 C-23 19.34 -23 18.68 -23 18 C-23.66 18 -24.32 18 -25 18 C-25.33 18.99 -25.66 19.98 -26 21 C-26.60963388 14.17210053 -25.39422733 10.28434005 -21 5 C-15.63896166 -1.18466155 -7.71574295 -1.59765688 0 0 Z " fill="#525159" transform="translate(153,109)"/>
<path d="M0 0 C2.31 0 4.62 0 7 0 C6.01 0.33 5.02 0.66 4 1 C4 2.65 4 4.3 4 6 C4.99 5.67 5.98 5.34 7 5 C7.33 3.35 7.66 1.7 8 0 C8.33 0 8.66 0 9 0 C9.495 7.92 9.495 7.92 10 16 C9.01 15.67 8.02 15.34 7 15 C4.94106379 14.77674186 2.87766347 14.59294241 0.8125 14.4375 C-0.27417969 14.35371094 -1.36085937 14.26992187 -2.48046875 14.18359375 C-3.31191406 14.12300781 -4.14335937 14.06242188 -5 14 C-5 14.66 -5 15.32 -5 16 C-5.99 16 -6.98 16 -8 16 C-7.67 13.03 -7.34 10.06 -7 7 C-6.34 7.33 -5.68 7.66 -5 8 C-2.27573689 5.64722731 -1.1858237 3.37503669 0 0 Z " fill="#859191" transform="translate(144,123)"/>
<path d="M0 0 C-1.81366403 4.12764916 -4.49146618 7.62059205 -7.125 11.25 C-7.59292969 11.8996875 -8.06085938 12.549375 -8.54296875 13.21875 C-9.69274282 14.81435483 -10.84602566 16.40743025 -12 18 C-13.73783825 15.39324263 -14.50215905 13.98704569 -15 11 C-14.67 10.67 -14.34 10.34 -14 10 C-13.95919217 8.00041636 -13.95745644 5.99954746 -14 4 C-13.2575 3.896875 -12.515 3.79375 -11.75 3.6875 C-8.96192452 3.1882621 -8.96192452 3.1882621 -7 1.4375 C-4.51091681 -0.35152855 -2.99743256 -0.24978605 0 0 Z " fill="#8B868E" transform="translate(109,80)"/>
<path d="M0 0 C2.27057162 2.27057162 2.74161714 3.76126752 3.7265625 6.7890625 C4.0359375 7.73007813 4.3453125 8.67109375 4.6640625 9.640625 C4.98117188 10.62546875 5.29828125 11.6103125 5.625 12.625 C5.94984375 13.61757812 6.2746875 14.61015625 6.609375 15.6328125 C7.41165238 18.08683743 8.20827586 20.54255409 9 23 C11.2236068 21.0745356 11.2236068 21.0745356 12 18 C14.30143236 21.45214853 14.13833854 22.23479324 13.625 26.1875 C13.45871094 27.53908203 13.45871094 27.53908203 13.2890625 28.91796875 C13.19367188 29.60503906 13.09828125 30.29210937 13 31 C13.66 31 14.32 31 15 31 C14.34 32.32 13.68 33.64 13 35 C8.81259932 27.29419165 5.32264029 19.64013158 2.5625 11.3125 C2.17457275 10.14581787 2.17457275 10.14581787 1.77880859 8.95556641 C0.78787637 5.87138325 0 3.25915573 0 0 Z " fill="#99959C" transform="translate(102,183)"/>
<path d="M0 0 C2.36300349 2.36300349 2.51433444 3.5798498 3.125 6.8125 C3.29257813 7.66457031 3.46015625 8.51664063 3.6328125 9.39453125 C3.995552 11.96843811 4.06523407 14.40461588 4 17 C3.4225 16.690625 2.845 16.38125 2.25 16.0625 C0.15705816 15.07416636 -1.74535275 14.4831387 -4 14 C-4.88855164 11.00446363 -5.19605797 9.48360967 -4.00390625 6.54296875 C-3.52824219 5.76566406 -3.05257812 4.98835937 -2.5625 4.1875 C-1.85287109 3.00220703 -1.85287109 3.00220703 -1.12890625 1.79296875 C-0.75636719 1.20128906 -0.38382812 0.60960938 0 0 Z M-2 11 C-2 11.99 -2 12.98 -2 14 C-1.34 14 -0.68 14 0 14 C0 13.01 0 12.02 0 11 C-0.66 11 -1.32 11 -2 11 Z " fill="#BBB9BC" transform="translate(86,125)"/>
<path d="M0 0 C2.31 0 4.62 0 7 0 C6.01 0.33 5.02 0.66 4 1 C4 2.65 4 4.3 4 6 C4.99 5.67 5.98 5.34 7 5 C7.33 3.35 7.66 1.7 8 0 C8.33 0 8.66 0 9 0 C9 2.64 9 5.28 9 8 C6.11788698 8.96070434 4.30149956 9.10581883 1.3125 9.0625 C0.10013672 9.04896484 0.10013672 9.04896484 -1.13671875 9.03515625 C-2.05904297 9.01775391 -2.05904297 9.01775391 -3 9 C-3.33 10.32 -3.66 11.64 -4 13 C-4.66 13 -5.32 13 -6 13 C-5.48168678 9.16448215 -4.74372987 7.63398068 -2 5 C-0.80972016 2.40084462 -0.80972016 2.40084462 0 0 Z " fill="#94A6A0" transform="translate(144,123)"/>
<path d="M0 0 C1.64574566 -0.02688151 3.29161413 -0.04634123 4.9375 -0.0625 C5.85402344 -0.07410156 6.77054688 -0.08570312 7.71484375 -0.09765625 C10 0 10 0 11 1 C11.04080783 2.99958364 11.04254356 5.00045254 11 7 C7.37 7 3.74 7 0 7 C0 4.69 0 2.38 0 0 Z " fill="#595A5F" transform="translate(140,116)"/>
<path d="M0 0 C3.3 0 6.6 0 10 0 C11.28485596 5.13942384 10.22194431 6.37835584 8 11 C8.99 11.33 9.98 11.66 11 12 C11.33 11.01 11.66 10.02 12 9 C12.33 9.66 12.66 10.32 13 11 C12.00390625 13.1640625 12.00390625 13.1640625 10.5625 15.625 C10.08941406 16.44226563 9.61632812 17.25953125 9.12890625 18.1015625 C8.75636719 18.72804688 8.38382813 19.35453125 8 20 C6.95550089 16.86650268 7.06576355 16.01031744 8 13 C6.3603125 13.061875 6.3603125 13.061875 4.6875 13.125 C1 13 1 13 -2 11 C-1.67 10.34 -1.34 9.68 -1 9 C0.485 9.99 0.485 9.99 2 11 C4.78855122 10.60428244 4.78855122 10.60428244 7 9 C7.04080783 7.00041636 7.04254356 4.99954746 7 3 C3.71303767 2.20046862 2.28976808 1.90341064 -1 3 C-0.67 2.01 -0.34 1.02 0 0 Z " fill="#AFABB1" transform="translate(71,109)"/>
<path d="M0 0 C6 9 6 9 6 13 C1.05 12.01 -3.9 11.02 -9 10 C-9 9.67 -9 9.34 -9 9 C-7.02 8.67 -5.04 8.34 -3 8 C-2.67 7.01 -2.34 6.02 -2 5 C-1.34 5 -0.68 5 0 5 C0 3.35 0 1.7 0 0 Z " fill="#7F7982" transform="translate(108,207)"/>
<path d="M0 0 C0.69287109 0.00451172 1.38574219 0.00902344 2.09960938 0.01367188 C3.79561068 0.02536844 5.49156703 0.04330076 7.1875 0.0625 C5.89781076 3.83386398 4.4549833 6.14321021 1.5625 8.875 C0.93085937 9.47957031 0.29921875 10.08414063 -0.3515625 10.70703125 C-0.83367187 11.15433594 -1.31578125 11.60164063 -1.8125 12.0625 C-1.8125 8.54533697 -0.98804415 7.69128252 1.1875 5.0625 C0.5275 4.7325 -0.1325 4.4025 -0.8125 4.0625 C-0.4825 3.4025 -0.1525 2.7425 0.1875 2.0625 C-4.1025 2.0625 -8.3925 2.0625 -12.8125 2.0625 C-12.8125 1.7325 -12.8125 1.4025 -12.8125 1.0625 C-8.52952469 0.00630997 -4.38264354 -0.05452092 0 0 Z " fill="#B4B2B6" transform="translate(121.8125,55.9375)"/>
<path d="M0 0 C0.99 0 1.98 0 3 0 C3 0.99 3 1.98 3 3 C4.65 2.67 6.3 2.34 8 2 C7.731875 2.515625 7.46375 3.03125 7.1875 3.5625 C5.67650593 6.66401415 4.34427274 9.82262806 3 13 C0.95204577 11.0373772 0.05023362 9.5722693 -0.19921875 6.73046875 C-0.18858877 4.48045617 -0.12958525 2.24614438 0 0 Z " fill="#504A54" transform="translate(83,78)"/>
<path d="M0 0 C0.99 0.33 1.98 0.66 3 1 C3 2.65 3 4.3 3 6 C2.34 6 1.68 6 1 6 C1 7.32 1 8.64 1 10 C-5.4 10.36923077 -5.4 10.36923077 -8.4375 8.5 C-8.953125 8.005 -9.46875 7.51 -10 7 C-9.34 6.34 -8.68 5.68 -8 5 C-6.33333333 5.33333333 -4.66666667 5.66666667 -3 6 C-0.8614515 3.8614515 -0.57344937 2.86724686 0 0 Z " fill="#4B454F" transform="translate(105,206)"/>
<path d="M0 0 C2.31 0 4.62 0 7 0 C7.38133299 1.9914056 7.71325582 3.99279077 8 6 C7 7 7 7 4.0625 7.125 C1 7 1 7 -1 6 C-0.67 4.02 -0.34 2.04 0 0 Z " fill="#71353D" transform="translate(167,146)"/>
<path d="M0 0 C0.33 1.32 0.66 2.64 1 4 C1.99 3.67 2.98 3.34 4 3 C4.33 3.66 4.66 4.32 5 5 C4.01 5 3.02 5 2 5 C1.896875 5.763125 1.79375 6.52625 1.6875 7.3125 C1 10 1 10 -0.5625 11.5 C-2.28656977 12.97875026 -2.28656977 12.97875026 -2.1875 15.6875 C-2.125625 16.450625 -2.06375 17.21375 -2 18 C-2.99 18.33 -3.98 18.66 -5 19 C-3.83795007 12.45150687 -2.26616615 6.25461856 0 0 Z " fill="#716D76" transform="translate(77,144)"/>
<path d="M0 0 C1.67542976 0.28604898 3.34385343 0.61781233 5 1 C4.75 3.875 4.75 3.875 4 7 C1.9375 8.375 1.9375 8.375 0 9 C-2 6 -2 6 -1.6875 3.375 C-1 1 -1 1 0 0 Z " fill="#49434F" transform="translate(109,68)"/>
<path d="M0 0 C0.226875 0.61875 0.45375 1.2375 0.6875 1.875 C2.37929835 4.61410209 3.99244161 5.05024472 7 6 C7 6.33 7 6.66 7 7 C4.36 7 1.72 7 -1 7 C-1 11.29 -1 15.58 -1 20 C-1.33 20 -1.66 20 -2 20 C-2.33910994 17.95928485 -2.67102704 15.91737379 -3 13.875 C-3.185625 12.73804687 -3.37125 11.60109375 -3.5625 10.4296875 C-3.96956049 7.23862398 -4.07809902 4.21182209 -4 1 C-3.34 1.66 -2.68 2.32 -2 3 C-1.34 2.01 -0.68 1.02 0 0 Z " fill="#B5B3B8" transform="translate(87,86)"/>
<path d="M0 0 C0.66 0 1.32 0 2 0 C3.18198059 2.50301771 4.0172568 4.39601183 3.9375 7.1875 C3 9 3 9 0.4375 10.25 C-0.366875 10.4975 -1.17125 10.745 -2 11 C-1.85892253 9.54119891 -1.71197585 8.08296449 -1.5625 6.625 C-1.48128906 5.81289062 -1.40007812 5.00078125 -1.31640625 4.1640625 C-1 2 -1 2 0 0 Z " fill="#67616C" transform="translate(80,137)"/>
<path d="M0 0 C0.66 1.32 1.32 2.64 2 4 C1.1028125 4.2784375 1.1028125 4.2784375 0.1875 4.5625 C-2.99799246 6.65582362 -3.55795606 9.55163407 -5 13 C-5.99 13.33 -6.98 13.66 -8 14 C-8.73323796 16.01508358 -8.73323796 16.01508358 -9 18 C-9.66 18 -10.32 18 -11 18 C-9.51971645 13.81490516 -7.42574276 10.41688407 -4.9375 6.75 C-4.22464844 5.69296875 -3.51179688 4.6359375 -2.77734375 3.546875 C-1 1 -1 1 0 0 Z " fill="#97959B" transform="translate(107,91)"/>
<path d="M0 0 C0.33 0 0.66 0 1 0 C1 4.62 1 9.24 1 14 C0.67 14 0.34 14 0 14 C-0.19456705 12.04235617 -0.38044247 10.08384679 -0.5625 8.125 C-0.66691406 7.03445312 -0.77132812 5.94390625 -0.87890625 4.8203125 C-1 2 -1 2 0 0 Z M-1 6 C-1 7.65 -1 9.3 -1 11 C-2.32 11.33 -3.64 11.66 -5 12 C-5 10.35 -5 8.7 -5 7 C-2 6 -2 6 -1 6 Z " fill="#798583" transform="translate(153,117)"/>
<path d="M0 0 C0 3.86695678 -1.41909971 6.5088452 -3 10 C-3.66 10 -4.32 10 -5 10 C-5 10.66 -5 11.32 -5 12 C-6.32 12.33 -7.64 12.66 -9 13 C-7.47987323 7.59510481 -3.72614782 4.01507372 0 0 Z " fill="#A09CA3" transform="translate(117,78)"/>
<path d="M0 0 C0 0.99 0 1.98 0 3 C-0.928125 3.3403125 -0.928125 3.3403125 -1.875 3.6875 C-4.23871582 4.85311983 -4.23871582 4.85311983 -5 7.5625 C-5.33 8.366875 -5.66 9.17125 -6 10 C-8.125 10.8125 -8.125 10.8125 -10 11 C-9.70985788 7.51829452 -9.27243676 6.25771045 -6.6875 3.8125 C-4.49308876 2.33254823 -2.41301628 1.07245168 0 0 Z " fill="#777179" transform="translate(128,69)"/>
<path d="M0 0 C0.33 2.64 0.66 5.28 1 8 C0.01 8.66 -0.98 9.32 -2 10 C-2.99 7.69 -3.98 5.38 -5 3 C-2.25 0 -2.25 0 0 0 Z " fill="#47414C" transform="translate(120,132)"/>
<path d="M0 0 C3.64060348 1.57362534 6.29840005 3.80954039 9.25 6.4375 C10.14203125 7.21996094 11.0340625 8.00242187 11.953125 8.80859375 C14 11 14 11 14 14 C13.49210938 13.43410156 12.98421875 12.86820313 12.4609375 12.28515625 C8.17299363 7.58143124 8.17299363 7.58143124 2.5 5 C1.675 5 0.85 5 0 5 C0 3.35 0 1.7 0 0 Z " fill="#C2C0C3" transform="translate(173,72)"/>
<path d="M0 0 C0 1.98 0 3.96 0 6 C-0.99 5.67 -1.98 5.34 -3 5 C-3 4.34 -3 3.68 -3 3 C-4.98 3 -6.96 3 -9 3 C-9 2.34 -9 1.68 -9 1 C-5.8035914 -0.06546953 -3.34252724 -0.07427838 0 0 Z " fill="#47464D" transform="translate(150,116)"/>
<path d="M0 0 C0.66 0 1.32 0 2 0 C4 7.625 4 7.625 4 11 C2.5 12.6875 2.5 12.6875 1 14 C0.34 11.69 -0.32 9.38 -1 7 C-0.67 6.67 -0.34 6.34 0 6 C0.04080783 4.00041636 0.04254356 1.99954746 0 0 Z " fill="#A29EA4" transform="translate(95,84)"/>
<path d="M0 0 C2.95183101 2.95183101 3.08663988 5.95511947 4 10 C1.03 9.01 -1.94 8.02 -5 7 C-4.67 6.34 -4.34 5.68 -4 5 C-1.9375 4.375 -1.9375 4.375 0 4 C0 2.68 0 1.36 0 0 Z " fill="#8C8A91" transform="translate(104,197)"/>
<path d="M0 0 C0.66 0 1.32 0 2 0 C2.36923077 5.53846154 2.36923077 5.53846154 0.5 7.875 C-0.2425 8.431875 -0.2425 8.431875 -1 9 C-2.32 8.34 -3.64 7.68 -5 7 C-4.01 6.34 -3.02 5.68 -2 5 C-0.79549696 2.44816596 -0.79549696 2.44816596 0 0 Z " fill="#48434D" transform="translate(135,113)"/>
<path d="M0 0 C0.33 0 0.66 0 1 0 C1.25 6.625 1.25 6.625 -1 10 C-2.32 9.67 -3.64 9.34 -5 9 C-4.3566152 7.686298 -3.71021785 6.37407102 -3.0625 5.0625 C-2.70285156 4.33160156 -2.34320313 3.60070312 -1.97265625 2.84765625 C-1 1 -1 1 0 0 Z " fill="#4F4852" transform="translate(83,111)"/>
<path d="M0 0 C2.97 0 5.94 0 9 0 C9 0.99 9 1.98 9 3 C6.03 3 3.06 3 0 3 C0 2.01 0 1.02 0 0 Z " fill="#525D5A" transform="translate(141,131)"/>
<path d="M0 0 C0.103125 0.639375 0.20625 1.27875 0.3125 1.9375 C0.539375 2.618125 0.76625 3.29875 1 4 C1.99 4.33 2.98 4.66 4 5 C3.67 6.65 3.34 8.3 3 10 C1.68 9.67 0.36 9.34 -1 9 C-1.80967438 6.08517222 -2.21845993 4.53886783 -1.0625 1.6875 C-0.711875 1.130625 -0.36125 0.57375 0 0 Z M1 6 C1 6.99 1 7.98 1 9 C1.66 9 2.32 9 3 9 C3 8.01 3 7.02 3 6 C2.34 6 1.68 6 1 6 Z " fill="#D3D1D4" transform="translate(83,130)"/>
<path d="M0 0 C0.66 0 1.32 0 2 0 C3.625 2 3.625 2 5 4 C4.34 5.32 3.68 6.64 3 8 C2.01 7.67 1.02 7.34 0 7 C0 4.69 0 2.38 0 0 Z " fill="#4A444F" transform="translate(128,127)"/>
<path d="M0 0 C0.33 0.66 0.66 1.32 1 2 C-0.25 5.0625 -0.25 5.0625 -2 8 C-2.99 8.33 -3.98 8.66 -5 9 C-5 6.69 -5 4.38 -5 2 C-3.35 1.34 -1.7 0.68 0 0 Z " fill="#544F59" transform="translate(103,84)"/>
<path d="M0 0 C0.33 0 0.66 0 1 0 C1 1.65 1 3.3 1 5 C2.65 5 4.3 5 6 5 C4 7 4 7 1.375 7.125 C0.59125 7.08375 -0.1925 7.0425 -1 7 C-1.625 5.1875 -1.625 5.1875 -2 3 C-1.34 2.01 -0.68 1.02 0 0 Z M6 4 C8 5 8 5 8 5 Z " fill="#46454C" transform="translate(135,134)"/>
<path d="M0 0 C2.64 0 5.28 0 8 0 C8 0.99 8 1.98 8 3 C9.32 3.33 10.64 3.66 12 4 C8.35839192 5.21386936 7.66834531 4.6674695 4.3125 3.0625 C3.10013672 2.49208984 3.10013672 2.49208984 1.86328125 1.91015625 C1.24839844 1.60980469 0.63351563 1.30945313 0 1 C0 0.67 0 0.34 0 0 Z " fill="#AAA7AC" transform="translate(87,211)"/>
<path d="M0 0 C2.35953094 2.35953094 2.49141413 3.77895617 3 7 C1.68 7.33 0.36 7.66 -1 8 C-1.93065133 5.39417629 -2.14917407 4.35801776 -1.0625 1.75 C-0.711875 1.1725 -0.36125 0.595 0 0 Z " fill="#899E94" transform="translate(126,128)"/>
<path d="M0 0 C0.33 0 0.66 0 1 0 C1.11001204 4.84052961 0.51765608 8.44703177 -1 13 C-1.66 13 -2.32 13 -3 13 C-2.68991116 11.39536551 -2.37683713 9.79130769 -2.0625 8.1875 C-1.88847656 7.29417969 -1.71445313 6.40085938 -1.53515625 5.48046875 C-1 3 -1 3 0 0 Z " fill="#A8A4AA" transform="translate(75,150)"/>
<path d="M0 0 C1.32 0 2.64 0 4 0 C3.67 1.65 3.34 3.3 3 5 C1.68 4.34 0.36 3.68 -1 3 C-0.67 2.01 -0.34 1.02 0 0 Z " fill="#CA252A" transform="translate(168,147)"/>
<path d="M0 0 C5.57142857 5.14285714 5.57142857 5.14285714 6 9 C5.34 8.67 4.68 8.34 4 8 C4 7.34 4 6.68 4 6 C2.68 6 1.36 6 0 6 C0 4.02 0 2.04 0 0 Z " fill="#AEABB0" transform="translate(191,90)"/>
<path d="M0 0 C0.66 1.32 1.32 2.64 2 4 C1.401875 4.268125 0.80375 4.53625 0.1875 4.8125 C-1.97224808 5.98493467 -3.35790256 7.19369282 -5 9 C-3.7508258 5.54074837 -2.32472205 2.85306797 0 0 Z " fill="#A8A7AC" transform="translate(107,91)"/>
<path d="M0 0 C1.32 0 2.64 0 4 0 C3.67 2.31 3.34 4.62 3 7 C1.68 5.68 0.36 4.36 -1 3 C-0.67 2.01 -0.34 1.02 0 0 Z " fill="#535158" transform="translate(131,134)"/>
<path d="M0 0 C0.66 0.33 1.32 0.66 2 1 C2 2.98 2 4.96 2 7 C0.68 7 -0.64 7 -2 7 C-1.34 4.69 -0.68 2.38 0 0 Z " fill="#56505A" transform="translate(94,92)"/>
<path d="M0 0 C0.99 0.33 1.98 0.66 3 1 C3 2.65 3 4.3 3 6 C1.68 5.67 0.36 5.34 -1 5 C-0.67 3.35 -0.34 1.7 0 0 Z " fill="#534E56" transform="translate(105,206)"/>
<path d="M0 0 C0.66 0 1.32 0 2 0 C2 1.98 2 3.96 2 6 C0.68 5.67 -0.64 5.34 -2 5 C-1.34 3.35 -0.68 1.7 0 0 Z " fill="#514C53" transform="translate(85,129)"/>
<path d="M0 0 C1.5 1.3125 1.5 1.3125 3 3 C3 3.99 3 4.98 3 6 C0.69 5.67 -1.62 5.34 -4 5 C-3.01 4.34 -2.02 3.68 -1 3 C-0.67 2.01 -0.34 1.02 0 0 Z " fill="#BDBCBE" transform="translate(111,214)"/>
<path d="M0 0 C1.485 0.99 1.485 0.99 3 2 C3.40843923 4.71203652 3.13336867 7.2437142 3 10 C0.70366176 6.55549263 0.45983515 4.06187717 0 0 Z " fill="#B0ACB2" transform="translate(99,173)"/>
<path d="M0 0 C1.0326802 2.78823655 1.04509293 3.8677274 0.0625 6.75 C-0.288125 7.4925 -0.63875 8.235 -1 9 C-1.33 9 -1.66 9 -2 9 C-2 6.36 -2 3.72 -2 1 C-1.34 0.67 -0.68 0.34 0 0 Z " fill="#585B5F" transform="translate(129,121)"/>
<path d="" fill="#FFFFFF" transform="translate(0,0)"/>
<path d="" fill="#FFFFFF" transform="translate(0,0)"/>
<path d="" fill="#FFFFFF" transform="translate(0,0)"/>
<path d="" fill="#FFFFFF" transform="translate(0,0)"/>
<path d="" fill="#FFFFFF" transform="translate(0,0)"/>
<path d="" fill="#FFFFFF" transform="translate(0,0)"/>
<path d="" fill="#FFFFFF" transform="translate(0,0)"/>
<path d="" fill="#FFFFFF" transform="translate(0,0)"/>
<path d="" fill="#FFFFFF" transform="translate(0,0)"/>
<path d="" fill="#FFFFFF" transform="translate(0,0)"/>
<path d="" fill="#FFFFFF" transform="translate(0,0)"/>
<path d="" fill="#FFFFFF" transform="translate(0,0)"/>
<path d="" fill="#FFFFFF" transform="translate(0,0)"/>
<path d="" fill="#FFFFFF" transform="translate(0,0)"/>
<path d="" fill="#FFFFFF" transform="translate(0,0)"/>
<path d="" fill="#FFFFFF" transform="translate(0,0)"/>
<path d="" fill="#FFFFFF" transform="translate(0,0)"/>
<path d="" fill="#FFFFFF" transform="translate(0,0)"/>
<path d="" fill="#FFFFFF" transform="translate(0,0)"/>
<path d="" fill="#FFFFFF" transform="translate(0,0)"/>
<path d="" fill="#FFFFFF" transform="translate(0,0)"/>
</svg>
