<?xml version="1.0" encoding="UTF-8"?>
<svg version="1.1" xmlns="http://www.w3.org/2000/svg" width="426" height="409">
<path d="M0 0 C22.17943728 4.63657503 41.47271761 17.85028084 54.0625 36.625 C66.08234594 56.30132315 69.652838 78.56949223 65.25 101.1875 C59.76756646 122.10664732 47.10554655 140.30912013 28.8125 152 C16.2699283 159.11505886 2.91599 163.81546117 -11.5625 164.4375 C-12.62855469 164.56769531 -13.69460937 164.69789063 -14.79296875 164.83203125 C-18.56635637 165.01874663 -21.04853517 164.85391201 -24.5625 163.4375 C-28.53970512 158.66485386 -30.47725927 153.23580747 -32.5625 147.4375 C-33.06257568 146.09800293 -33.06257568 146.09800293 -33.57275391 144.73144531 C-40.89166725 124.91439698 -45.45822157 104.45122091 -49.58319092 83.77590942 C-49.8589054 82.39445029 -50.13706538 81.01347676 -50.41778564 79.63302612 C-50.80831943 77.7001046 -51.18375075 75.76415056 -51.55859375 73.828125 C-51.77700928 72.71469727 -51.9954248 71.60126953 -52.22045898 70.45410156 C-52.74310197 65.84469637 -51.89025062 62.57629219 -49.55859375 58.6171875 C-49.1517334 57.92254395 -48.74487305 57.22790039 -48.32568359 56.51220703 C-47.88820801 55.78630371 -47.45073242 55.06040039 -47 54.3125 C-46.54963379 53.55694824 -46.09926758 52.80139648 -45.63525391 52.02294922 C-41.93905263 45.89919687 -37.88011969 40.13852028 -33.5625 34.4375 C-32.31187855 32.6671055 -31.06189434 30.8962607 -29.8125 29.125 C-25.21246206 22.80785557 -20.18752685 16.89698255 -14.99365234 11.06494141 C-13.68124012 9.57252587 -12.41058194 8.04366053 -11.14453125 6.51171875 C-5.23889649 -0.20920718 -5.23889649 -0.20920718 0 0 Z " fill="#4C4553" transform="translate(233.5625,56.5625)"/>
<path d="M0 0 C0.66 0.33 1.32 0.66 2 1 C2.52529903 3.73614771 2.9245109 6.40248193 3.25390625 9.1640625 C3.35968491 9.98949554 3.46546356 10.81492859 3.57444763 11.66537476 C3.91241022 14.31757671 4.23767234 16.97116041 4.5625 19.625 C4.78495672 21.39203437 5.00825376 23.15896317 5.23242188 24.92578125 C5.73902056 28.92285924 6.23934838 32.92062151 6.72462463 36.92034912 C6.98649494 38.89800901 7.32143169 40.86558764 7.66015625 42.83154297 C8.12198103 47.13726275 6.49553437 49.86982462 4.4375 53.5 C3.68549412 54.91422492 2.93818412 56.3309557 2.1953125 57.75 C1.63505371 58.81541016 1.63505371 58.81541016 1.06347656 59.90234375 C-1.73205084 65.41638679 -3.87712639 71.20152238 -6 77 C-6.43054688 78.17046875 -6.86109375 79.3409375 -7.3046875 80.546875 C-11.65797384 93.36338262 -13.72795605 106.68626082 -16 120 C-22.7688952 113.39091009 -26.9246476 106.80977121 -30.25 98 C-30.49613037 97.34797607 -30.74226074 96.69595215 -30.99584961 96.02416992 C-38.23799979 75.93764016 -37.20900535 53.12416958 -28.26342773 33.83618164 C-21.50904293 19.9320096 -12.60315405 8.93678196 0 0 Z M-9 25 C-9.33 26.32 -9.66 27.64 -10 29 C-8.68 28.67 -7.36 28.34 -6 28 C-6.99 27.01 -7.98 26.02 -9 25 Z M-7.1875 41.1875 C-9.21667976 42.8815484 -9.21667976 42.8815484 -9.5 45.5 C-9.20609687 48.10852444 -9.20609687 48.10852444 -7.25 49.875 C-5.0996331 51.19585412 -5.0996331 51.19585412 -2.875 50.8125 C-0.80828571 50.05339164 -0.80828571 50.05339164 1 48 C1.41666667 45 1.41666667 45 1 42 C-2.37022521 39.75318319 -3.60026952 39.24014631 -7.1875 41.1875 Z M-22 86 C-21.67 87.32 -21.34 88.64 -21 90 C-20.01 89.67 -19.02 89.34 -18 89 C-18 88.01 -18 87.02 -18 86 C-19.32 86 -20.64 86 -22 86 Z " fill="#544D5A" transform="translate(171,70)"/>
<path d="M0 0 C4.7404535 3.04816258 8.81415595 7.29423733 10.5625 12.7578125 C12.24087836 21.35950158 12.53114445 28.50328961 7.67382812 35.9543457 C5.89073044 38.47006117 4.06679986 40.9490012 2.19628906 43.40039062 C-2.47947699 49.6525578 -5.16381987 56.6900767 -7.7890625 63.984375 C-8.9648313 66.9124186 -10.16209631 69.4343984 -12 72 C-15 72.625 -15 72.625 -18 72 C-20.63617417 68.37609475 -21.93283767 64.54630913 -23.3125 60.3125 C-26.17659519 52.09752038 -30.3278075 45.45769145 -35.1875 38.3125 C-39.61399682 31.67856383 -42.11891883 26.01044159 -41 18 C-38.95522537 9.35839294 -35.46198432 3.46923768 -27.93359375 -1.3125 C-18.57230215 -6.13549102 -9.05851478 -4.88745876 0 0 Z " fill="#90A59B" transform="translate(253,105)"/>
<path d="M0 0 C2.58420667 2.58420667 2.6331792 4.33337617 3.296875 7.9140625 C3.53003418 9.13786621 3.76319336 10.36166992 4.00341797 11.62255859 C4.12473083 12.27472351 4.2460437 12.92688843 4.37103271 13.59881592 C5.01351554 17.03391049 5.6893124 20.4623645 6.3671875 23.890625 C6.57234482 24.92834549 6.57234482 24.92834549 6.78164673 25.98703003 C11.07532884 47.51957753 16.12904954 70.63918655 26.96875 89.92578125 C28 92 28 92 28 95 C12.08428584 92.45883555 -1.33731836 87.10320344 -14 77 C-14.5669458 76.5656665 -15.1338916 76.13133301 -15.71801758 75.68383789 C-18.05715581 73.68874067 -19.77717681 72.17317753 -20.36474609 69.07958984 C-20.3205809 66.80907329 -20.0542397 64.67871295 -19.6875 62.4375 C-19.5735791 61.61032471 -19.4596582 60.78314941 -19.34228516 59.9309082 C-17.27648377 45.97431216 -13.76248479 32.5214127 -9 19.25 C-8.68015137 18.35756592 -8.36030273 17.46513184 -8.03076172 16.5456543 C-5.85156842 10.71084502 -3.17421288 5.35648423 0 0 Z M-2 11 C-2 11.99 -2 12.98 -2 14 C-1.34 14 -0.68 14 0 14 C0 13.01 0 12.02 0 11 C-0.66 11 -1.32 11 -2 11 Z M13 80 C12.34 80.66 11.68 81.32 11 82 C11.08571661 84.09291157 11.08571661 84.09291157 12 86 C12.99 86.33 13.98 86.66 15 87 C15.99 86.01 16.98 85.02 18 84 C17.34 82.68 16.68 81.36 16 80 C15.01 80 14.02 80 13 80 Z " fill="#514A57" transform="translate(179,125)"/>
<path d="M0 0 C-1.26502343 3.68178461 -2.55420838 5.84193811 -5.4375 8.4375 C-11.29192608 14.09222393 -16.10640576 20.52287419 -21 27 C-21.58185059 27.76940918 -22.16370117 28.53881836 -22.76318359 29.33154297 C-24.62124183 31.79828394 -26.46891672 34.27242539 -28.3125 36.75 C-28.88693848 37.51739502 -29.46137695 38.28479004 -30.05322266 39.07543945 C-33.63105759 43.92485207 -36.78037532 48.87888593 -39.72729492 54.13769531 C-40.1472876 54.75225586 -40.56728027 55.36681641 -41 56 C-41.66 56 -42.32 56 -43 56 C-43.69711757 51.48390724 -44.39073505 46.96729488 -45.08129883 42.45019531 C-45.31604546 40.91782592 -45.55170081 39.38559543 -45.78833008 37.85351562 C-47.06488214 29.58426503 -48.2787076 21.34046159 -49 13 C-33.84970775 3.03183896 -18.03961169 -0.94530716 0 0 Z M-41 30 C-40.67958603 32.60280568 -40.67958603 32.60280568 -40 35 C-37.60280568 35.67958603 -37.60280568 35.67958603 -35 36 C-32.73160017 34.16734675 -32.73160017 34.16734675 -32.8125 31.4375 C-32.72996677 29.05310277 -32.72996677 29.05310277 -34 28 C-37.961168 27.60909667 -37.961168 27.60909667 -41 30 Z " fill="#544D59" transform="translate(222,56)"/>
<path d="M0 0 C4.59217242 2.91729937 7.98218831 6.93178753 10 12 C10.83929822 17.13234576 11.01256752 21.94490734 8.6796875 26.6796875 C5.18009093 31.46613124 1.86549821 34.48306081 -4 36 C-9.4230565 36.7526662 -13.79007655 36.37177555 -18.4296875 33.33984375 C-23.72057643 28.82547832 -25.696402 24.03598003 -26.375 17.25 C-26.2770877 11.40789939 -23.30223128 7.65592604 -19.6015625 3.38671875 C-14.1929377 -1.48653456 -6.81906012 -1.38892249 0 0 Z " fill="#4B4751" transform="translate(246,109)"/>
<path d="M0 0 C1.51400391 0.01740234 1.51400391 0.01740234 3.05859375 0.03515625 C4.07050781 0.04417969 5.08242187 0.05320312 6.125 0.0625 C7.29869141 0.07990234 7.29869141 0.07990234 8.49609375 0.09765625 C10.86722858 5.06049659 12.92783722 9.55715512 13.49609375 15.09765625 C14.15609375 15.09765625 14.81609375 15.09765625 15.49609375 15.09765625 C15.66044922 14.22753906 15.66044922 14.22753906 15.828125 13.33984375 C16.81043025 8.50019348 18.04431286 4.44399509 20.49609375 0.09765625 C22.30851427 0.07078346 24.12104608 0.0513191 25.93359375 0.03515625 C26.94292969 0.02355469 27.95226562 0.01195312 28.9921875 0 C31.49609375 0.09765625 31.49609375 0.09765625 32.49609375 1.09765625 C32.59581161 3.01223907 32.62689964 4.93047942 32.62890625 6.84765625 C32.63083984 8.595625 32.63083984 8.595625 32.6328125 10.37890625 C32.62894531 11.60609375 32.62507813 12.83328125 32.62109375 14.09765625 C32.62689453 15.9384375 32.62689453 15.9384375 32.6328125 17.81640625 C32.63152344 18.98171875 32.63023437 20.14703125 32.62890625 21.34765625 C32.62777832 22.4253125 32.62665039 23.50296875 32.62548828 24.61328125 C32.49609375 27.09765625 32.49609375 27.09765625 31.49609375 28.09765625 C29.16311942 28.13858562 26.8290415 28.14007348 24.49609375 28.09765625 C24.00109375 21.66265625 24.00109375 21.66265625 23.49609375 15.09765625 C22.69171875 17.05703125 21.88734375 19.01640625 21.05859375 21.03515625 C18.62109375 26.97265625 18.62109375 26.97265625 17.49609375 28.09765625 C14.62109375 28.47265625 14.62109375 28.47265625 11.49609375 28.09765625 C8.40561345 24.43486479 7.08858286 19.57179233 5.49609375 15.09765625 C5.16609375 19.38765625 4.83609375 23.67765625 4.49609375 28.09765625 C2.163146 28.14007348 -0.17093192 28.13858562 -2.50390625 28.09765625 C-4.27840219 26.32316031 -3.63420697 23.74748364 -3.63671875 21.34765625 C-3.63800781 20.18234375 -3.63929688 19.01703125 -3.640625 17.81640625 C-3.63675781 16.58921875 -3.63289062 15.36203125 -3.62890625 14.09765625 C-3.63277344 12.87046875 -3.63664063 11.64328125 -3.640625 10.37890625 C-3.63933594 9.21359375 -3.63804687 8.04828125 -3.63671875 6.84765625 C-3.63559082 5.77 -3.63446289 4.69234375 -3.63330078 3.58203125 C-3.45837039 0.22336769 -3.36429035 0.13121257 0 0 Z " fill="#6C6D68" transform="translate(216.50390625,273.90234375)"/>
<path d="M0 0 C0.78890625 -0.00386719 1.5778125 -0.00773437 2.390625 -0.01171875 C8.24834606 -0.00165394 8.24834606 -0.00165394 9.375 1.125 C9.47471786 3.03958282 9.50580589 4.95782317 9.5078125 6.875 C9.50974609 8.62296875 9.50974609 8.62296875 9.51171875 10.40625 C9.50785156 11.6334375 9.50398438 12.860625 9.5 14.125 C9.50580078 15.96578125 9.50580078 15.96578125 9.51171875 17.84375 C9.51042969 19.0090625 9.50914063 20.174375 9.5078125 21.375 C9.50668457 22.45265625 9.50555664 23.5303125 9.50439453 24.640625 C9.375 27.125 9.375 27.125 8.375 28.125 C4.875 28.25 4.875 28.25 1.375 28.125 C1.045 27.795 0.715 27.465 0.375 27.125 C0.375 25.475 0.375 23.825 0.375 22.125 C-3.585 22.125 -7.545 22.125 -11.625 22.125 C-11.955 23.775 -12.285 25.425 -12.625 27.125 C-13.625 28.125 -13.625 28.125 -17.1875 28.1875 C-18.321875 28.166875 -19.45625 28.14625 -20.625 28.125 C-22.11017278 23.66948167 -20.6631638 20.20210973 -19.5 15.75 C-19.29890625 14.89921875 -19.0978125 14.0484375 -18.890625 13.171875 C-17.52080248 7.87412766 -16.08616679 4.61332668 -11.625 1.125 C-7.73936275 -0.17021242 -4.04699731 -0.02003464 0 0 Z M-6.625 7.125 C-8.63986569 11.00020127 -8.63986569 11.00020127 -9.625 15.125 C-6.325 15.125 -3.025 15.125 0.375 15.125 C0.375 12.485 0.375 9.845 0.375 7.125 C-1.935 7.125 -4.245 7.125 -6.625 7.125 Z " fill="#51524D" transform="translate(101.625,273.875)"/>
<path d="M0 0 C3.526875 -0.061875 7.05375 -0.12375 10.6875 -0.1875 C12.342052 -0.22846802 12.342052 -0.22846802 14.0300293 -0.27026367 C23.14958118 -0.34783783 23.14958118 -0.34783783 27 3 C28.59387042 6.18774083 28.52663137 9.53927959 28 13 C26 15.5 26 15.5 24 17 C24.3609375 17.54269531 24.721875 18.08539063 25.09375 18.64453125 C25.5578125 19.35996094 26.021875 20.07539063 26.5 20.8125 C26.9640625 21.52019531 27.428125 22.22789062 27.90625 22.95703125 C29 25 29 25 29 28 C23.77290837 28.43559097 23.77290837 28.43559097 21 28 C18.625 25.6875 18.625 25.6875 17 23 C16.34 22.01 15.68 21.02 15 20 C11.43230448 19.26393501 11.43230448 19.26393501 8 19 C8 21.97 8 24.94 8 28 C5.36 28 2.72 28 0 28 C0 18.76 0 9.52 0 0 Z M8 7 C8 8.65 8 10.3 8 12 C11.3 12 14.6 12 18 12 C18.66 10.68 19.32 9.36 20 8 C18.94021067 6.71387324 18.94021067 6.71387324 16.49609375 6.90234375 C15.48675781 6.91394531 14.47742188 6.92554688 13.4375 6.9375 C12.42558594 6.94652344 11.41367187 6.95554687 10.37109375 6.96484375 C9.58863281 6.97644531 8.80617188 6.98804688 8 7 Z " fill="#70716C" transform="translate(319,274)"/>
<path d="M0 0 C3.20749352 2.53261366 4.56113175 5.25593848 5.16015625 9.265625 C5.17371285 19.79910063 5.17371285 19.79910063 0.7265625 24.36328125 C-4.46208865 28.15985526 -10.09215295 28.03576079 -16.2734375 27.36328125 C-20.98317245 25.7362819 -23.70320025 23.64701 -26.2734375 19.36328125 C-27.55310566 13.78758428 -27.76597674 8.64159965 -25.2734375 3.36328125 C-18.66274376 -4.46874301 -8.58038194 -4.29019097 0 0 Z M-16.7109375 5.86328125 C-18.88375832 9.33979456 -19.15768992 12.43844156 -18.2734375 16.36328125 C-16.3970258 19.57341172 -16.3970258 19.57341172 -13.2734375 21.36328125 C-9.62361035 21.78237807 -9.62361035 21.78237807 -6.2734375 20.36328125 C-3.66341738 16.93762985 -3.25264082 14.97678335 -3.3984375 10.67578125 C-4.08207265 7.49607043 -4.08207265 7.49607043 -5.3984375 5.42578125 C-9.27240814 3.23053122 -12.99946393 3.57929751 -16.7109375 5.86328125 Z " fill="#747571" transform="translate(378.2734375,275.63671875)"/>
<path d="M0 0 C1.5631897 0.00785522 1.5631897 0.00785522 3.15795898 0.01586914 C4.28266602 0.0190918 5.40737305 0.02231445 6.56616211 0.02563477 C7.75016602 0.03401367 8.93416992 0.04239258 10.15405273 0.05102539 C11.34192383 0.05553711 12.52979492 0.06004883 13.75366211 0.06469727 C16.69967499 0.07652864 19.64558954 0.09301252 22.59155273 0.11352539 C23.21655273 1.92602539 23.21655273 1.92602539 23.59155273 4.11352539 C22.60155273 5.59852539 22.60155273 5.59852539 21.59155273 7.11352539 C18.64091125 7.33438179 15.90787043 7.39413529 12.96655273 7.30102539 C12.16475586 7.28749023 11.36295898 7.27395508 10.53686523 7.26000977 C8.55480895 7.2246159 6.57309722 7.17080773 4.59155273 7.11352539 C4.92155273 8.10352539 5.25155273 9.09352539 5.59155273 10.11352539 C10.54155273 10.44352539 15.49155273 10.77352539 20.59155273 11.11352539 C20.59155273 12.76352539 20.59155273 14.41352539 20.59155273 16.11352539 C19.59155273 17.11352539 19.59155273 17.11352539 16.21264648 17.21118164 C14.81808196 17.20450908 13.42353531 17.19255071 12.02905273 17.17602539 C11.31813477 17.17151367 10.6072168 17.16700195 9.87475586 17.16235352 C8.1136526 17.15053403 6.35259238 17.13259802 4.59155273 17.11352539 C4.59155273 18.76352539 4.59155273 20.41352539 4.59155273 22.11352539 C10.53155273 22.11352539 16.47155273 22.11352539 22.59155273 22.11352539 C23.59155273 26.11352539 23.59155273 26.11352539 22.59155273 28.11352539 C16.89773903 29.37629682 11.44056778 29.05885947 5.65405273 28.67602539 C4.77942383 28.62381836 3.90479492 28.57161133 3.00366211 28.51782227 C0.86590641 28.38932329 -1.27133396 28.25229898 -3.40844727 28.11352539 C-3.43731065 23.63437211 -3.45519914 19.15524248 -3.47094727 14.67602539 C-3.47932617 13.39663086 -3.48770508 12.11723633 -3.49633789 10.79907227 C-3.49956055 9.58413086 -3.5027832 8.36918945 -3.50610352 7.11743164 C-3.51134033 5.99151611 -3.51657715 4.86560059 -3.52197266 3.70556641 C-3.37415861 0.330638 -3.36011727 0.15838363 0 0 Z " fill="#53544F" transform="translate(259.408447265625,273.886474609375)"/>
<path d="M0 0 C3.5 0.125 3.5 0.125 4.5 1.125 C4.57205511 2.81108966 4.58386068 4.50000659 4.5625 6.1875 C4.55347656 7.10660156 4.54445312 8.02570313 4.53515625 8.97265625 C4.52355469 9.68292969 4.51195312 10.39320313 4.5 11.125 C7.33393036 10.77193549 7.33393036 10.77193549 10.5 9.125 C12.04416145 6.96949253 12.04416145 6.96949253 13.4375 4.5 C14.91015625 2.05859375 14.91015625 2.05859375 16.5 0.125 C20.375 -0.4375 20.375 -0.4375 23.5 0.125 C23.83 1.115 24.16 2.105 24.5 3.125 C23.06640625 5.82421875 23.06640625 5.82421875 21.0625 8.8125 C20.40378906 9.80636719 19.74507812 10.80023438 19.06640625 11.82421875 C18.54949219 12.58347656 18.03257812 13.34273438 17.5 14.125 C17.92152344 14.71667969 18.34304687 15.30835938 18.77734375 15.91796875 C19.32519531 16.70816406 19.87304688 17.49835938 20.4375 18.3125 C20.98277344 19.08980469 21.52804688 19.86710937 22.08984375 20.66796875 C23.5456289 23.20450299 24.09613435 25.2468182 24.5 28.125 C17.95598327 28.49541604 17.95598327 28.49541604 15.91796875 26.83984375 C14.501419 25.12671609 13.31461197 23.37623364 12.125 21.5 C10.30106077 18.86665308 9.83630766 18.23710255 6.6875 17.1875 C5.965625 17.166875 5.24375 17.14625 4.5 17.125 C4.51160156 17.83527344 4.52320313 18.54554688 4.53515625 19.27734375 C4.54869141 20.65599609 4.54869141 20.65599609 4.5625 22.0625 C4.57410156 22.97902344 4.58570313 23.89554687 4.59765625 24.83984375 C4.5 27.125 4.5 27.125 3.5 28.125 C0 28.25 0 28.25 -3.5 28.125 C-5.27449594 26.35050406 -4.63030072 23.77482739 -4.6328125 21.375 C-4.63410156 20.2096875 -4.63539063 19.044375 -4.63671875 17.84375 C-4.63285156 16.6165625 -4.62898437 15.389375 -4.625 14.125 C-4.62886719 12.8978125 -4.63273438 11.670625 -4.63671875 10.40625 C-4.63542969 9.2409375 -4.63414062 8.075625 -4.6328125 6.875 C-4.63168457 5.79734375 -4.63055664 4.7196875 -4.62939453 3.609375 C-4.42661422 -0.28400696 -4.04240535 0.14437162 0 0 Z " fill="#7E7E7A" transform="translate(153.5,273.875)"/>
<path d="M0 0 C3.14293791 1.76552444 3.93519901 3.37421922 4.98828125 6.78125 C4.91649623 10.87299618 4.64081258 12.29962397 1.92578125 15.34375 C-1.93912134 17.77569083 -5.64258028 19.23584038 -10.07421875 20.34375 C-3.14421875 20.83875 -3.14421875 20.83875 3.92578125 21.34375 C3.92578125 23.32375 3.92578125 25.30375 3.92578125 27.34375 C-4.32421875 27.34375 -12.57421875 27.34375 -21.07421875 27.34375 C-22.07421875 21.34375 -22.07421875 21.34375 -21.19921875 18.21875 C-17.54855894 13.27962203 -12.371469 11.82738163 -6.51171875 10.59375 C-5.30515625 10.47 -5.30515625 10.47 -4.07421875 10.34375 C-4.40421875 9.35375 -4.73421875 8.36375 -5.07421875 7.34375 C-8.44885899 7.0933923 -8.44885899 7.0933923 -12.07421875 7.34375 C-13.69936343 8.80208358 -13.69936343 8.80208358 -15.07421875 10.34375 C-17.69921875 10.59375 -17.69921875 10.59375 -20.07421875 10.34375 C-20.40421875 10.01375 -20.73421875 9.68375 -21.07421875 9.34375 C-21.01171875 5.96875 -21.01171875 5.96875 -20.07421875 2.34375 C-14.88245288 -2.00610789 -6.29746262 -1.99241755 0 0 Z " fill="#33342E" transform="translate(203.07421875,274.65625)"/>
<path d="M0 0 C2.4609375 -0.43359375 2.4609375 -0.43359375 5.375 -0.4375 C6.33148438 -0.45683594 7.28796875 -0.47617188 8.2734375 -0.49609375 C11 0 11 0 13.3359375 1.32421875 C16.05405572 5.6949018 15.41583751 10.22384771 15.25 15.25 C15.23195312 16.28125 15.21390625 17.3125 15.1953125 18.375 C15.14822712 20.91761064 15.0824805 23.45833162 15 26 C14.01 25.67 13.02 25.34 12 25 C9.94106379 24.77674186 7.87766347 24.59294241 5.8125 24.4375 C4.72582031 24.35371094 3.63914063 24.26992187 2.51953125 24.18359375 C1.68808594 24.12300781 0.85664063 24.06242187 0 24 C0 24.66 0 25.32 0 26 C-0.99 26 -1.98 26 -3 26 C-2.8902432 22.22856018 -2.75958521 18.45812903 -2.625 14.6875 C-2.57859375 13.0797168 -2.57859375 13.0797168 -2.53125 11.43945312 C-2.49257812 10.41142578 -2.45390625 9.38339844 -2.4140625 8.32421875 C-2.3826416 7.37635498 -2.3512207 6.42849121 -2.31884766 5.4519043 C-2 3 -2 3 0 0 Z " fill="#899594" transform="translate(232,113)"/>
<path d="M0 0 C4.47915328 -0.02886338 8.95828291 -0.04675187 13.4375 -0.0625 C14.71689453 -0.07087891 15.99628906 -0.07925781 17.31445312 -0.08789062 C19.13686523 -0.09272461 19.13686523 -0.09272461 20.99609375 -0.09765625 C22.12200928 -0.10289307 23.2479248 -0.10812988 24.40795898 -0.11352539 C27 0 27 0 28 1 C28.125 3.5 28.125 3.5 28 6 C27 7 27 7 24.93359375 7.09765625 C24.10988281 7.08605469 23.28617188 7.07445312 22.4375 7.0625 C21.61121094 7.05347656 20.78492187 7.04445313 19.93359375 7.03515625 C19.29550781 7.02355469 18.65742187 7.01195312 18 7 C18.00785522 7.90093384 18.00785522 7.90093384 18.01586914 8.82006836 C18.03658014 11.52586838 18.04964125 14.23165177 18.0625 16.9375 C18.07087891 17.88302734 18.07925781 18.82855469 18.08789062 19.80273438 C18.09272461 21.15141602 18.09272461 21.15141602 18.09765625 22.52734375 C18.10551147 23.77632446 18.10551147 23.77632446 18.11352539 25.05053711 C18 27 18 27 17 28 C13.5 28.125 13.5 28.125 10 28 C9 27 9 27 8.88647461 25.05053711 C8.89171143 24.2178833 8.89694824 23.38522949 8.90234375 22.52734375 C8.90556641 21.62822266 8.90878906 20.72910156 8.91210938 19.80273438 C8.92048828 18.85720703 8.92886719 17.91167969 8.9375 16.9375 C8.94426758 15.5134082 8.94426758 15.5134082 8.95117188 14.06054688 C8.9629989 11.70696935 8.97947975 9.35351523 9 7 C7.081875 7.061875 7.081875 7.061875 5.125 7.125 C2.9453125 7.1953125 2.9453125 7.1953125 1 7 C0.34 6.34 -0.32 5.68 -1 5 C-0.625 2.375 -0.625 2.375 0 0 Z " fill="#5F5F5B" transform="translate(53,274)"/>
<path d="M0 0 C4.47915328 -0.02886338 8.95828291 -0.04675187 13.4375 -0.0625 C14.71689453 -0.07087891 15.99628906 -0.07925781 17.31445312 -0.08789062 C19.13686523 -0.09272461 19.13686523 -0.09272461 20.99609375 -0.09765625 C22.12200928 -0.10289307 23.2479248 -0.10812988 24.40795898 -0.11352539 C27 0 27 0 28 1 C28.125 3.5 28.125 3.5 28 6 C27 7 27 7 24.93359375 7.09765625 C24.10988281 7.08605469 23.28617187 7.07445312 22.4375 7.0625 C21.61121094 7.05347656 20.78492188 7.04445313 19.93359375 7.03515625 C19.29550781 7.02355469 18.65742188 7.01195312 18 7 C18.00785522 7.90093384 18.00785522 7.90093384 18.01586914 8.82006836 C18.03658014 11.52586838 18.04964125 14.23165177 18.0625 16.9375 C18.07087891 17.88302734 18.07925781 18.82855469 18.08789062 19.80273438 C18.09272461 21.15141602 18.09272461 21.15141602 18.09765625 22.52734375 C18.10551147 23.77632446 18.10551147 23.77632446 18.11352539 25.05053711 C18 27 18 27 17 28 C13.5 28.125 13.5 28.125 10 28 C9 27 9 27 8.88647461 25.05053711 C8.89171143 24.2178833 8.89694824 23.38522949 8.90234375 22.52734375 C8.90556641 21.62822266 8.90878906 20.72910156 8.91210938 19.80273438 C8.92048828 18.85720703 8.92886719 17.91167969 8.9375 16.9375 C8.94426758 15.5134082 8.94426758 15.5134082 8.95117188 14.06054688 C8.9629989 11.70696935 8.97947975 9.35351523 9 7 C7.081875 7.061875 7.081875 7.061875 5.125 7.125 C2.9453125 7.1953125 2.9453125 7.1953125 1 7 C0.34 6.34 -0.32 5.68 -1 5 C-0.625 2.375 -0.625 2.375 0 0 Z " fill="#5C5C58" transform="translate(286,274)"/>
<path d="M0 0 C3 0.125 3 0.125 4 1.125 C4.23927796 3.54732013 4.42301907 5.94665995 4.5625 8.375 C4.60568359 9.04402344 4.64886719 9.71304687 4.69335938 10.40234375 C4.91543615 13.99082248 5 17.52575263 5 21.125 C10.61 21.455 16.22 21.785 22 22.125 C23 26.125 23 26.125 22 28.125 C13.42 28.125 4.84 28.125 -4 28.125 C-4.02682159 23.64579403 -4.04675177 19.16674649 -4.0625 14.6875 C-4.07087891 13.40810547 -4.07925781 12.12871094 -4.08789062 10.81054688 C-4.09111328 9.59560547 -4.09433594 8.38066406 -4.09765625 7.12890625 C-4.10289307 6.00299072 -4.10812988 4.8770752 -4.11352539 3.71704102 C-3.95040567 -0.00735054 -3.77500011 0.15729167 0 0 Z " fill="#575853" transform="translate(122,273.875)"/>
<path d="M0 0 C0.33 0 0.66 0 1 0 C1.33 2.31 1.66 4.62 2 7 C5.27773504 6.24849977 5.27773504 6.24849977 7 3 C9.7427508 2.52885262 12.19558897 2.82194216 15 3 C16 4 16 4 16.0625 6.5625 C16.041875 7.366875 16.02125 8.17125 16 9 C18.16874252 8.49396008 19.99967627 8.00016187 22 7 C20.31682712 10.70838089 18.03101299 13.93984201 15.6875 17.25 C13.02437754 21.03640223 10.43793538 24.83684618 8.0625 28.8125 C7.381875 29.864375 6.70125 30.91625 6 32 C5.34 32 4.68 32 4 32 C3.32419171 27.98064819 2.66099739 23.95931185 2 19.9375 C1.80921875 18.80376953 1.6184375 17.67003906 1.421875 16.50195312 C0.51320476 10.9363479 -0.26201086 5.64142133 0 0 Z M6 6 C6.32041397 8.60280568 6.32041397 8.60280568 7 11 C9.39719432 11.67958603 9.39719432 11.67958603 12 12 C14.26839983 10.16734675 14.26839983 10.16734675 14.1875 7.4375 C14.27003323 5.05310277 14.27003323 5.05310277 13 4 C9.038832 3.60909667 9.038832 3.60909667 6 6 Z " fill="#534C58" transform="translate(175,80)"/>
<path d="M0 0 C3.18946807 1.79166245 3.93076451 3.36119141 4.92578125 6.84375 C4.92578125 10.14670881 4.74910917 11.66238541 2.92578125 14.34375 C2.26578125 13.35375 1.60578125 12.36375 0.92578125 11.34375 C0.59578125 11.67375 0.26578125 12.00375 -0.07421875 12.34375 C-2.29567508 12.62762779 -4.51739523 12.79140173 -6.75 12.96484375 C-9.23065057 13.36925233 -10.93914103 14.02876836 -13.07421875 15.34375 C-13.40421875 16.00375 -13.73421875 16.66375 -14.07421875 17.34375 C-17.13671875 17.96875 -17.13671875 17.96875 -20.07421875 18.34375 C-19.07421875 15.34375 -19.07421875 15.34375 -17.21875 14.2109375 C-12.8370904 12.34671382 -8.86169158 10.83477285 -4.07421875 10.34375 C-4.40421875 9.35375 -4.73421875 8.36375 -5.07421875 7.34375 C-8.44885899 7.0933923 -8.44885899 7.0933923 -12.07421875 7.34375 C-13.69936343 8.80208358 -13.69936343 8.80208358 -15.07421875 10.34375 C-17.69921875 10.59375 -17.69921875 10.59375 -20.07421875 10.34375 C-20.40421875 10.01375 -20.73421875 9.68375 -21.07421875 9.34375 C-21.01171875 5.96875 -21.01171875 5.96875 -20.07421875 2.34375 C-14.88245288 -2.00610789 -6.29746262 -1.99241755 0 0 Z " fill="#373832" transform="translate(203.07421875,274.65625)"/>
<path d="M0 0 C5.28 0 10.56 0 16 0 C15.67 1.32 15.34 2.64 15 4 C12.36 4.33 9.72 4.66 7 5 C6.67 7.31 6.34 9.62 6 12 C9.3 12 12.6 12 16 12 C16 13.65 16 15.3 16 17 C12.7 17 9.4 17 6 17 C6 19.97 6 22.94 6 26 C4.02 26 2.04 26 0 26 C0 17.42 0 8.84 0 0 Z " fill="#383933" transform="translate(320,275)"/>
<path d="M0 0 C0.66 0 1.32 0 2 0 C2.82203603 5.10597991 3.24015983 10.080089 3.3125 15.25 C3.34150391 15.95640625 3.37050781 16.6628125 3.40039062 17.390625 C3.42578125 19.453125 3.42578125 19.453125 3 23 C0.98046875 24.984375 0.98046875 24.984375 -1 26 C-3.46800047 24.84826645 -5.04783565 23.95216435 -7 22 C-7 21.01 -7 20.02 -7 19 C-6.34 19 -5.68 19 -5 19 C-5 17.68 -5 16.36 -5 15 C-5.7425 15.37125 -6.485 15.7425 -7.25 16.125 C-10 17 -10 17 -12.3125 16.125 C-12.869375 15.75375 -13.42625 15.3825 -14 15 C-12.91731293 11.96847622 -11.99032931 10.99362614 -9.25 9.1875 C-5.86010311 6.90583863 -3.78543399 4.57491015 -1.296875 1.390625 C-0.86890625 0.93171875 -0.4409375 0.4728125 0 0 Z " fill="#4B434F" transform="translate(170,72)"/>
<path d="M0 0 C2.42578125 2.5390625 2.42578125 2.5390625 4 5 C-0.75 6.125 -0.75 6.125 -3 5 C-4.87379605 4.92966231 -6.75001102 4.9156978 -8.625 4.9375 C-10.12933594 4.95103516 -10.12933594 4.95103516 -11.6640625 4.96484375 C-12.43492187 4.97644531 -13.20578125 4.98804687 -14 5 C-15.4807848 7.9615696 -15.35314037 10.83506295 -15.5625 14.125 C-15.64628906 15.40632813 -15.73007813 16.68765625 -15.81640625 18.0078125 C-15.87699219 18.99523437 -15.93757812 19.98265625 -16 21 C-16.33 21 -16.66 21 -17 21 C-17 18.69 -17 16.38 -17 14 C-17.99 14 -18.98 14 -20 14 C-19.67 14.66 -19.34 15.32 -19 16 C-18.95977609 18.3329866 -18.95679753 20.66706666 -19 23 C-19.33 22.34 -19.66 21.68 -20 21 C-20.99 20.67 -21.98 20.34 -23 20 C-23 19.34 -23 18.68 -23 18 C-23.66 18 -24.32 18 -25 18 C-25.33 18.99 -25.66 19.98 -26 21 C-26.60963388 14.17210053 -25.39422733 10.28434005 -21 5 C-15.63896166 -1.18466155 -7.71574295 -1.59765688 0 0 Z " fill="#525159" transform="translate(246,109)"/>
<path d="M0 0 C11.30975009 -0.40232313 11.30975009 -0.40232313 16 2 C18.89104658 5.83645992 19.34407281 8.56312464 19.1875 13.3125 C19.16042969 14.38113281 19.13335937 15.44976562 19.10546875 16.55078125 C19.07066406 17.35902344 19.03585937 18.16726563 19 19 C17.68 19.33 16.36 19.66 15 20 C15 20.66 15 21.32 15 22 C13.68 22 12.36 22 11 22 C11 23.32 11 24.64 11 26 C9.68 25.67 8.36 25.34 7 25 C7.28875 24.43152344 7.5775 23.86304688 7.875 23.27734375 C10.21667989 18.40697481 11.95321293 14.50745249 11 9 C8.59272465 5.83615239 7.02257696 4.29541112 3.1875 3.1875 C2.465625 3.125625 1.74375 3.06375 1 3 C0.67 2.01 0.34 1.02 0 0 Z " fill="#4B4C47" transform="translate(364,275)"/>
<path d="M0 0 C1.65 0 3.3 0 5 0 C6 1 6 1 6.09765625 3.28515625 C6.08605469 4.20167969 6.07445312 5.11820312 6.0625 6.0625 C6.05347656 6.98160156 6.04445312 7.90070313 6.03515625 8.84765625 C6.02355469 9.55792969 6.01195312 10.26820313 6 11 C8.97 11 11.94 11 15 11 C15.66 12.32 16.32 13.64 17 15 C12.74433453 16.16063604 9.3164922 15.76173392 5 15 C5 18.63 5 22.26 5 26 C3.35 26 1.7 26 0 26 C0 17.42 0 8.84 0 0 Z " fill="#363732" transform="translate(151,275)"/>
<path d="M0 0 C2.97 0 5.94 0 9 0 C11 2 11 2 11.3125 5.9375 C11.25612142 8.76155426 11.23113287 9.69182284 9.5 12 C9.005 12.33 8.51 12.66 8 13 C7.67 11.02 7.34 9.04 7 7 C6.34 7 5.68 7 5 7 C5 13.27 5 19.54 5 26 C3.35 26 1.7 26 0 26 C0 17.42 0 8.84 0 0 Z " fill="#363731" transform="translate(215,275)"/>
<path d="M0 0 C0.99 0 1.98 0 3 0 C2.04686705 5.13581345 0.53063013 10.00881479 -1 15 C2.63 15 6.26 15 10 15 C9.67 15.66 9.34 16.32 9 17 C9.66 17.66 10.32 18.32 11 19 C6.38 19 1.76 19 -3 19 C-3 19.66 -3 20.32 -3 21 C-3.66 21 -4.32 21 -5 21 C-5 22.32 -5 23.64 -5 25 C-6.65 25 -8.3 25 -10 25 C-9.73040144 19.17667109 -8.77098033 14.79607275 -5.83984375 9.7265625 C-4.78128937 7.87036971 -4.78128937 7.87036971 -5 5 C-4.34 5 -3.68 5 -3 5 C-2.67 4.01 -2.34 3.02 -2 2 C-1.34 2 -0.68 2 0 2 C0 1.34 0 0.68 0 0 Z " fill="#3C3D36" transform="translate(92,276)"/>
<path d="M0 0 C2.11843471 3.17765206 3.57918894 6.44035056 5.0625 9.9375 C5.33126953 10.55818359 5.60003906 11.17886719 5.87695312 11.81835938 C7.16780079 14.8410675 8.34481381 17.77260136 9 21 C0.26039352 19.46182926 -7.88818867 17.76006313 -16 14 C-12.25 12 -12.25 12 -10 12 C-9.34 10.68 -8.68 9.36 -8 8 C-7.67 8.99 -7.34 9.98 -7 11 C-5.35 11.33 -3.7 11.66 -2 12 C-2.33 10.35 -2.66 8.7 -3 7 C-3.99 6.67 -4.98 6.34 -6 6 C-6 5.34 -6 4.68 -6 4 C-4.68 4 -3.36 4 -2 4 C-1.01 5.485 -1.01 5.485 0 7 C0 4.69 0 2.38 0 0 Z " fill="#817C85" transform="translate(198,199)"/>
<path d="M0 0 C2.31 0 4.62 0 7 0 C6.01 0.33 5.02 0.66 4 1 C4 2.65 4 4.3 4 6 C4.99 5.67 5.98 5.34 7 5 C7.33 3.35 7.66 1.7 8 0 C8.33 0 8.66 0 9 0 C9.495 7.92 9.495 7.92 10 16 C9.01 15.67 8.02 15.34 7 15 C4.94106379 14.77674186 2.87766347 14.59294241 0.8125 14.4375 C-0.27417969 14.35371094 -1.36085937 14.26992187 -2.48046875 14.18359375 C-3.31191406 14.12300781 -4.14335937 14.06242188 -5 14 C-5 14.66 -5 15.32 -5 16 C-5.99 16 -6.98 16 -8 16 C-7.67 13.03 -7.34 10.06 -7 7 C-6.34 7.33 -5.68 7.66 -5 8 C-2.27573689 5.64722731 -1.1858237 3.37503669 0 0 Z " fill="#859191" transform="translate(237,123)"/>
<path d="M0 0 C3.3 0 6.6 0 10 0 C10 8.25 10 16.5 10 25 C8.35 25 6.7 25 5 25 C5.02618408 24.44014404 5.05236816 23.88028809 5.0793457 23.3034668 C5.18332331 20.76509706 5.2483205 18.22717447 5.3125 15.6875 C5.35439453 14.80642578 5.39628906 13.92535156 5.43945312 13.01757812 C5.48577882 10.58084657 5.48869976 8.38913457 5 6 C2.60531475 4.01984815 2.60531475 4.01984815 0 3 C0 2.01 0 1.02 0 0 Z " fill="#33332E" transform="translate(237,276)"/>
<path d="M0 0 C0.78890625 -0.00386719 1.5778125 -0.00773437 2.390625 -0.01171875 C8.24834606 -0.00165394 8.24834606 -0.00165394 9.375 1.125 C9.47471786 3.03958282 9.50580589 4.95782317 9.5078125 6.875 C9.50974609 8.62296875 9.50974609 8.62296875 9.51171875 10.40625 C9.50785156 11.6334375 9.50398438 12.860625 9.5 14.125 C9.50580078 15.96578125 9.50580078 15.96578125 9.51171875 17.84375 C9.51042969 19.0090625 9.50914063 20.174375 9.5078125 21.375 C9.50668457 22.45265625 9.50555664 23.5303125 9.50439453 24.640625 C9.375 27.125 9.375 27.125 8.375 28.125 C6.04202567 28.16592937 3.70794775 28.16741723 1.375 28.125 C1.375 27.795 1.375 27.465 1.375 27.125 C3.355 27.125 5.335 27.125 7.375 27.125 C7.375 18.545 7.375 9.965 7.375 1.125 C-1.04 1.62 -1.04 1.62 -9.625 2.125 C-9.625 2.785 -9.625 3.445 -9.625 4.125 C-11 5.75 -11 5.75 -12.625 7.125 C-13.285 7.125 -13.945 7.125 -14.625 7.125 C-14.295 8.115 -13.965 9.105 -13.625 10.125 C-14.62109375 12.82421875 -14.62109375 12.82421875 -16.0625 15.8125 C-16.53558594 16.80636719 -17.00867188 17.80023438 -17.49609375 18.82421875 C-18.05490234 19.96310547 -18.05490234 19.96310547 -18.625 21.125 C-20.41424802 15.91657255 -18.54993045 11.08426738 -16.625 6.125 C-12.4036416 -0.12533389 -6.97291826 -0.0345194 0 0 Z " fill="#9A9B98" transform="translate(101.625,273.875)"/>
<path d="M0 0 C0.33 0 0.66 0 1 0 C1.042721 1.66611905 1.04063832 3.33382885 1 5 C0 6 0 6 -2.06640625 6.09765625 C-2.89011719 6.08605469 -3.71382813 6.07445312 -4.5625 6.0625 C-5.38878906 6.05347656 -6.21507812 6.04445313 -7.06640625 6.03515625 C-7.70449219 6.02355469 -8.34257812 6.01195312 -9 6 C-8.99214478 6.90093384 -8.99214478 6.90093384 -8.98413086 7.82006836 C-8.96341986 10.52586838 -8.95035875 13.23165177 -8.9375 15.9375 C-8.92912109 16.88302734 -8.92074219 17.82855469 -8.91210938 18.80273438 C-8.90727539 20.15141602 -8.90727539 20.15141602 -8.90234375 21.52734375 C-8.89448853 22.77632446 -8.89448853 22.77632446 -8.88647461 24.05053711 C-9 26 -9 26 -10 27 C-13.5 27.125 -13.5 27.125 -17 27 C-18 26 -18 26 -18.11352539 24.05053711 C-18.10567017 22.8015564 -18.10567017 22.8015564 -18.09765625 21.52734375 C-18.09443359 20.62822266 -18.09121094 19.72910156 -18.08789062 18.80273438 C-18.07951172 17.85720703 -18.07113281 16.91167969 -18.0625 15.9375 C-18.05798828 14.98810547 -18.05347656 14.03871094 -18.04882812 13.06054688 C-18.0370011 10.70696935 -18.02052025 8.35351523 -18 6 C-20.64 6 -23.28 6 -26 6 C-26 5.67 -26 5.34 -26 5 C-22.7 5 -19.4 5 -16 5 C-16 11.93 -16 18.86 -16 26 C-14.35 26 -12.7 26 -11 26 C-11 18.74 -11 11.48 -11 4 C-7.37 4 -3.74 4 0 4 C0 2.68 0 1.36 0 0 Z " fill="#9FA09C" transform="translate(313,275)"/>
<path d="M0 0 C5.94 0 11.88 0 18 0 C18 0.33 18 0.66 18 1 C12.39 1 6.78 1 1 1 C1.33 1.99 1.66 2.98 2 4 C6.95 4.33 11.9 4.66 17 5 C17 6.65 17 8.3 17 10 C16 11 16 11 12.62109375 11.09765625 C11.22652923 11.09098369 9.83198257 11.07902532 8.4375 11.0625 C7.37112305 11.05573242 7.37112305 11.05573242 6.28320312 11.04882812 C4.52209987 11.03700864 2.76103964 11.01907263 1 11 C1 12.65 1 14.3 1 16 C0.67 16 0.34 16 0 16 C0.08378906 15.36191406 0.16757812 14.72382813 0.25390625 14.06640625 C0.35574219 13.24011719 0.45757812 12.41382813 0.5625 11.5625 C0.66691406 10.73878906 0.77132813 9.91507812 0.87890625 9.06640625 C0.91886719 8.38449219 0.95882813 7.70257813 1 7 C0.67 6.67 0.34 6.34 0 6 C0 4.02 0 2.04 0 0 Z " fill="#6F706C" transform="translate(263,280)"/>
<path d="M0 0 C2.56640625 -0.328125 2.56640625 -0.328125 5.5625 -0.25 C7.04943359 -0.22679687 7.04943359 -0.22679687 8.56640625 -0.203125 C11 0 11 0 12 1 C12.09971786 2.91458282 12.13080589 4.83282317 12.1328125 6.75 C12.13474609 8.49796875 12.13474609 8.49796875 12.13671875 10.28125 C12.13285156 11.5084375 12.12898437 12.735625 12.125 14 C12.12886719 15.2271875 12.13273438 16.454375 12.13671875 17.71875 C12.13542969 18.8840625 12.13414062 20.049375 12.1328125 21.25 C12.13168457 22.32765625 12.13055664 23.4053125 12.12939453 24.515625 C12 27 12 27 11 28 C8.66702567 28.04092937 6.33294775 28.04241723 4 28 C3.03794912 21.62641289 2.89344422 15.44070471 3 9 C3.66 9 4.32 9 5 9 C5 14.94 5 20.88 5 27 C6.65 27 8.3 27 10 27 C10 18.75 10 10.5 10 2 C6.7 2 3.4 2 0 2 C-0.33 3.32 -0.66 4.64 -1 6 C-1.33 5.01 -1.66 4.02 -2 3 C-1.34 2.01 -0.68 1.02 0 0 Z " fill="#949491" transform="translate(237,274)"/>
<path d="M0 0 C8.25 0 16.5 0 25 0 C25 1.32 25 2.64 25 4 C24.07767578 4.09087891 24.07767578 4.09087891 23.13671875 4.18359375 C22.32847656 4.26738281 21.52023438 4.35117187 20.6875 4.4375 C19.88699219 4.51871094 19.08648437 4.59992188 18.26171875 4.68359375 C15.83912821 4.95265693 15.83912821 4.95265693 13 6 C12.34 5.67 11.68 5.34 11 5 C9.12943209 4.7724985 7.25314042 4.59037189 5.375 4.4375 C3.87066406 4.31181641 3.87066406 4.31181641 2.3359375 4.18359375 C1.56507812 4.12300781 0.79421875 4.06242187 0 4 C0 2.68 0 1.36 0 0 Z " fill="#32332D" transform="translate(54,275)"/>
<path d="M0 0 C8.58 0 17.16 0 26 0 C26 1.32 26 2.64 26 4 C17.42 4 8.84 4 0 4 C0 2.68 0 1.36 0 0 Z " fill="#373833" transform="translate(287,275)"/>
<path d="M0 0 C1.9375 0.5625 1.9375 0.5625 4 2 C4.92678615 5.57474656 5.40411569 7.9492992 4.0625 11.4375 C3.5365625 12.2109375 3.5365625 12.2109375 3 13 C2.34 12.01 1.68 11.02 1 10 C0.67 10.33 0.34 10.66 0 11 C-2.22145633 11.28387779 -4.44317648 11.44765173 -6.67578125 11.62109375 C-9.15643182 12.02550233 -10.86492228 12.68501836 -13 14 C-13.33 14.66 -13.66 15.32 -14 16 C-17.0625 16.625 -17.0625 16.625 -20 17 C-19 14 -19 14 -17.14453125 12.8671875 C-12.76287165 11.00296382 -8.78747283 9.49102285 -4 9 C-4.33 8.01 -4.66 7.02 -5 6 C-9.65052872 5.73067479 -9.65052872 5.73067479 -14 7 C-13.67 6.01 -13.34 5.02 -13 4 C-9.37 4 -5.74 4 -2 4 C-2 5.65 -2 7.3 -2 9 C-1.34 9 -0.68 9 0 9 C0 8.01 0 7.02 0 6 C0.66 6 1.32 6 2 6 C1.34 4.02 0.68 2.04 0 0 Z " fill="#767772" transform="translate(203,276)"/>
<path d="M0 0 C0.99 0.33 1.98 0.66 3 1 C2.67 6.61 2.34 12.22 2 18 C-1 18 -1 18 -2.6640625 16.7734375 C-5.08780448 13.55595545 -4.51954391 9.84597439 -4 6 C-2.8410416 3.58130422 -1.87677904 1.87677904 0 0 Z " fill="#373832" transform="translate(357,279)"/>
<path d="M0 0 C3.01130357 0.61594846 5.29665885 1.13467725 7.2890625 3.5859375 C9.00339797 6.50894115 10 8.58147006 10 12 C3.50159236 12.36783439 3.50159236 12.36783439 1.125 10.625 C-1.15884397 7.32611427 -1.1695651 4.98477985 -1 1 C-0.67 0.67 -0.34 0.34 0 0 Z " fill="#40423C" transform="translate(168,290)"/>
<path d="M0 0 C-2.88211302 0.96070434 -4.69850044 1.10581883 -7.6875 1.0625 C-8.89986328 1.04896484 -8.89986328 1.04896484 -10.13671875 1.03515625 C-11.05904297 1.01775391 -11.05904297 1.01775391 -12 1 C-12 1.66 -12 2.32 -12 3 C-10.35 3 -8.7 3 -7 3 C-6.67 3.66 -6.34 4.32 -6 5 C-8.97 5.66 -11.94 6.32 -15 7 C-15.66 10.3 -16.32 13.6 -17 17 C-17.33 17 -17.66 17 -18 17 C-18 12.05 -18 7.1 -18 2 C-18.99 1.67 -19.98 1.34 -21 1 C-14.06926291 -2.53909979 -7.19771799 -3.71495122 0 0 Z " fill="#858681" transform="translate(377,275)"/>
<path d="M0 0 C4.47915328 -0.02886338 8.95828291 -0.04675187 13.4375 -0.0625 C14.71689453 -0.07087891 15.99628906 -0.07925781 17.31445312 -0.08789062 C19.13686523 -0.09272461 19.13686523 -0.09272461 20.99609375 -0.09765625 C22.12200928 -0.10289307 23.2479248 -0.10812988 24.40795898 -0.11352539 C27 0 27 0 28 1 C28.125 3.5 28.125 3.5 28 6 C27.67 6.33 27.34 6.66 27 7 C24.03 7 21.06 7 18 7 C18 13.6 18 20.2 18 27 C17.67 27 17.34 27 17 27 C17 19.74 17 12.48 17 5 C19.97 5 22.94 5 26 5 C26 3.68 26 2.36 26 1 C17.75 1 9.5 1 1 1 C1 2.65 1 4.3 1 6 C0.34 5.67 -0.32 5.34 -1 5 C-0.67 3.35 -0.34 1.7 0 0 Z " fill="#AFB0AD" transform="translate(53,274)"/>
<path d="M0 0 C0.66 0.33 1.32 0.66 2 1 C2.33 2.65 2.66 4.3 3 6 C7.62 6 12.24 6 17 6 C17 6.33 17 6.66 17 7 C12.38 7 7.76 7 3 7 C3 7.66 3 8.32 3 9 C2.34 9 1.68 9 1 9 C1 10.32 1 11.64 1 13 C-0.65 13 -2.3 13 -4 13 C-3.40546697 3.40546697 -3.40546697 3.40546697 0 0 Z " fill="#3B3C36" transform="translate(86,288)"/>
<path d="M0 0 C0.33 0.66 0.66 1.32 1 2 C2.98 2 4.96 2 7 2 C5.02 2.99 5.02 2.99 3 4 C9.93 4.495 9.93 4.495 17 5 C17 6.98 17 8.96 17 11 C8.75 11 0.5 11 -8 11 C-9 5 -9 5 -7 2 C-7 4.64 -7 7.28 -7 10 C0.59 10 8.18 10 16 10 C16 8.68 16 7.36 16 6 C10.39 6 4.78 6 -1 6 C-1 1 -1 1 0 0 Z " fill="#999A96" transform="translate(190,291)"/>
<path d="M0 0 C2.36300349 2.36300349 2.51433444 3.5798498 3.125 6.8125 C3.29257813 7.66457031 3.46015625 8.51664063 3.6328125 9.39453125 C3.995552 11.96843811 4.06523407 14.40461588 4 17 C3.67 15.68 3.34 14.36 3 13 C2.01 13.66 1.02 14.32 0 15 C-2.1875 14.625 -2.1875 14.625 -4 14 C-4.88855164 11.00446363 -5.19605797 9.48360967 -4.00390625 6.54296875 C-3.52824219 5.76566406 -3.05257812 4.98835937 -2.5625 4.1875 C-1.85287109 3.00220703 -1.85287109 3.00220703 -1.12890625 1.79296875 C-0.75636719 1.20128906 -0.38382813 0.60960938 0 0 Z M-2 11 C-2 11.99 -2 12.98 -2 14 C-1.34 14 -0.68 14 0 14 C0 13.01 0 12.02 0 11 C-0.66 11 -1.32 11 -2 11 Z " fill="#817D84" transform="translate(179,125)"/>
<path d="M0 0 C2.31 0 4.62 0 7 0 C6.01 0.33 5.02 0.66 4 1 C4 2.65 4 4.3 4 6 C4.99 5.67 5.98 5.34 7 5 C7.33 3.35 7.66 1.7 8 0 C8.33 0 8.66 0 9 0 C9 2.64 9 5.28 9 8 C6.11788698 8.96070434 4.30149956 9.10581883 1.3125 9.0625 C0.10013672 9.04896484 0.10013672 9.04896484 -1.13671875 9.03515625 C-2.05904297 9.01775391 -2.05904297 9.01775391 -3 9 C-3.33 10.32 -3.66 11.64 -4 13 C-4.66 13 -5.32 13 -6 13 C-5.48168678 9.16448215 -4.74372987 7.63398068 -2 5 C-0.80972016 2.40084462 -0.80972016 2.40084462 0 0 Z " fill="#94A6A0" transform="translate(237,123)"/>
<path d="M0 0 C1.64574566 -0.02688151 3.29161413 -0.04634123 4.9375 -0.0625 C5.85402344 -0.07410156 6.77054688 -0.08570312 7.71484375 -0.09765625 C10 0 10 0 11 1 C11.04080783 2.99958364 11.04254356 5.00045254 11 7 C7.37 7 3.74 7 0 7 C0 4.69 0 2.38 0 0 Z " fill="#595A5F" transform="translate(233,116)"/>
<path d="M0 0 C0.66 0.33 1.32 0.66 2 1 C2 3.64 2 6.28 2 9 C1.67 9 1.34 9 1 9 C1 6.69 1 4.38 1 2 C-0.0828125 3.0828125 -0.0828125 3.0828125 -1.1875 4.1875 C-2.115625 5.115625 -3.04375 6.04375 -4 7 C-4.825 7.86625 -5.65 8.7325 -6.5 9.625 C-9 12 -9 12 -11.6875 13.5625 C-14.26552081 15.16505348 -15.02461632 16.16252021 -16 19 C-16 19.99 -16 20.98 -16 22 C-16.66 22.66 -17.32 23.32 -18 24 C-18 23.34 -18 22.68 -18 22 C-19.98 22.99 -19.98 22.99 -22 24 C-20.50423859 19.16130194 -17.7785489 16.16240749 -14.375 12.5625 C-13.57400879 11.70362183 -13.57400879 11.70362183 -12.75683594 10.82739258 C-8.82129319 6.68300338 -4.75245564 3.19876822 0 0 Z " fill="#9C96A0" transform="translate(171,70)"/>
<path d="M0 0 C6.15234375 -0.09765625 6.15234375 -0.09765625 8 0 C9 1 9 1 9.0625 3.5625 C9.041875 4.366875 9.02125 5.17125 9 6 C11.16874252 5.49396008 12.99967627 5.00016187 15 4 C13.45158425 7.34708051 11.50894136 10.24667512 9.375 13.25 C8.74335938 14.14203125 8.11171875 15.0340625 7.4609375 15.953125 C6.97882813 16.62859375 6.49671875 17.3040625 6 18 C5.34 16.68 4.68 15.36 4 14 C4.99 14 5.98 14 7 14 C6.34 12.02 5.68 10.04 5 8 C5.33 7.67 5.66 7.34 6 7 C6.04063832 5.33382885 6.042721 3.66611905 6 2 C2.37114676 1.84850702 2.37114676 1.84850702 -1 3 C-0.67 2.01 -0.34 1.02 0 0 Z " fill="#858089" transform="translate(182,83)"/>
<path d="M0 0 C3.5625 0.125 3.5625 0.125 5.5625 1.125 C4.19879701 4.11720268 2.61341917 6.41526529 0.4375 8.875 C-0.37074219 9.79539062 -0.37074219 9.79539062 -1.1953125 10.734375 C-1.60523438 11.19328125 -2.01515625 11.6521875 -2.4375 12.125 C-2.4375 9.79166667 -2.4375 7.45833333 -2.4375 5.125 C-3.4275 5.125 -4.4175 5.125 -5.4375 5.125 C-4.31567859 0.15693377 -4.31567859 0.15693377 0 0 Z " fill="#6A656F" transform="translate(205.4375,67.875)"/>
<path d="M0 0 C3.16004824 0.67202324 4.74940141 1.47876761 7.5 3.3125 C5.19 3.6425 2.88 3.9725 0.5 4.3125 C0.5 3.6525 0.5 2.9925 0.5 2.3125 C-3.79061782 3.74790669 -6.6886981 5.8968499 -10.125 8.8125 C-12.87251375 11.13094996 -15.50745988 13.31747325 -18.5 15.3125 C-15.56020841 8.3137916 -8.12921864 -0.76510293 0 0 Z " fill="#8D8990" transform="translate(234.5,56.6875)"/>
<path d="M0 0 C0.66 0.66 1.32 1.32 2 2 C0.86820313 2.03738281 -0.26359375 2.07476562 -1.4296875 2.11328125 C-2.91149205 2.17893082 -4.39326139 2.24537851 -5.875 2.3125 C-6.99455078 2.34633789 -6.99455078 2.34633789 -8.13671875 2.38085938 C-10.099604 2.47811945 -12.05328322 2.73042294 -14 3 C-14.99 4.485 -14.99 4.485 -16 6 C-16.66 6 -17.32 6 -18 6 C-18 6.99 -18 7.98 -18 9 C-16.02 9 -14.04 9 -12 9 C-12.33 9.66 -12.66 10.32 -13 11 C-14.66611905 11.042721 -16.33382885 11.04063832 -18 11 C-18.33 10.67 -18.66 10.34 -19 10 C-18.9375 6.625 -18.9375 6.625 -18 3 C-13.07125312 -1.12949063 -6.12917037 -0.70650617 0 0 Z " fill="#868681" transform="translate(201,274)"/>
<path d="M0 0 C0.33 0 0.66 0 1 0 C1.33 2.31 1.66 4.62 2 7 C3.32 6.67 4.64 6.34 6 6 C6.2475 6.78375 6.495 7.5675 6.75 8.375 C8.15389099 11.32317108 9.00675737 11.9024777 12 13 C9.36 13 6.72 13 4 13 C3.67 15.31 3.34 17.62 3 20 C2.67 20 2.34 20 2 20 C-0.29612756 6.3667426 -0.29612756 6.3667426 0 0 Z " fill="#959099" transform="translate(175,80)"/>
<path d="M0 0 C0.33 0 0.66 0 1 0 C1.3125 2.3125 1.3125 2.3125 1 5 C-2.28889579 7.72508509 -4.78287443 8.36146791 -9 8 C-10 5 -10 5 -10 2 C-9.04287109 1.90912109 -9.04287109 1.90912109 -8.06640625 1.81640625 C-6.82697266 1.69072266 -6.82697266 1.69072266 -5.5625 1.5625 C-4.73878906 1.48128906 -3.91507813 1.40007812 -3.06640625 1.31640625 C-1.01337975 1.21069185 -1.01337975 1.21069185 0 0 Z " fill="#4D4E49" transform="translate(204,285)"/>
<path d="M0 0 C2.31 0 4.62 0 7 0 C7.38133299 1.9914056 7.71325582 3.99279077 8 6 C7 7 7 7 4.0625 7.125 C1 7 1 7 -1 6 C-0.67 4.02 -0.34 2.04 0 0 Z " fill="#71353D" transform="translate(260,146)"/>
<path d="M0 0 C0.33 0.99 0.66 1.98 1 3 C1.99 3.33 2.98 3.66 4 4 C2.865625 4.12375 1.73125 4.2475 0.5625 4.375 C-1.2009375 4.684375 -1.2009375 4.684375 -3 5 C-3.33 5.66 -3.66 6.32 -4 7 C-5.98 7 -7.96 7 -10 7 C-10 4 -10 4 -8.375 1.8125 C-5.39500988 -0.46170299 -3.66075376 -0.3327958 0 0 Z " fill="#393A35" transform="translate(193,276)"/>
<path d="M0 0 C0 3 0 3 -2.3125 5.5625 C-5 8 -5 8 -8 10 C-8.66 9.67 -9.32 9.34 -10 9 C-10 7.35 -10 5.7 -10 4 C-3.375 1.125 -3.375 1.125 0 0 Z " fill="#726E77" transform="translate(201,80)"/>
<path d="M0 0 C0.66 0 1.32 0 2 0 C3.15015519 2.43562275 3.98280339 4.41531519 4.0625 7.125 C2.28984862 10.25320833 -0.74930562 10.81792932 -4 12 C-3.52309796 10.37433394 -3.04340334 8.74948689 -2.5625 7.125 C-2.29566406 6.22007812 -2.02882812 5.31515625 -1.75390625 4.3828125 C-1 2 -1 2 0 0 Z " fill="#645E69" transform="translate(173,137)"/>
<path d="M0 0 C2 2 2 2 4 5 C4.66 3.35 5.32 1.7 6 0 C8.23551759 3.35327639 8.17283528 3.90743657 7.625 7.6875 C7.51414063 8.49574219 7.40328125 9.30398437 7.2890625 10.13671875 C7.19367188 10.75160156 7.09828125 11.36648437 7 12 C6.01 12 5.02 12 4 12 C3.32645501 10.56570999 2.66140299 9.12742943 2 7.6875 C1.62875 6.88699219 1.2575 6.08648437 0.875 5.26171875 C0 3 0 3 0 0 Z " fill="#6F6A74" transform="translate(201,201)"/>
<path d="M0 0 C0.66 0 1.32 0 2 0 C1.125 5.75 1.125 5.75 0 8 C-4.21878192 8.19622241 -7.17010894 7.80230168 -11 6 C-10.34 5.01 -9.68 4.02 -9 3 C-7.02 3.66 -5.04 4.32 -3 5 C-2.690625 4.360625 -2.38125 3.72125 -2.0625 3.0625 C-1 1 -1 1 0 0 Z " fill="#4A434D" transform="translate(199,208)"/>
<path d="M0 0 C0.33 0 0.66 0 1 0 C1 1.98 1 3.96 1 6 C2.65 6 4.3 6 6 6 C6 4.68 6 3.36 6 2 C6.66 2 7.32 2 8 2 C8 1.34 8 0.68 8 0 C12.62 0 17.24 0 22 0 C22 1.98 22 3.96 22 6 C21.67 6 21.34 6 21 6 C21 4.35 21 2.7 21 1 C17.04 1 13.08 1 9 1 C8.67 2.65 8.34 4.3 8 6 C7 7 7 7 3.4375 7.0625 C2.303125 7.041875 1.16875 7.02125 0 7 C-1.04449911 3.86650268 -0.93423645 3.01031744 0 0 Z " fill="#BBBBB8" transform="translate(81,295)"/>
<path d="M0 0 C1.65 0 3.3 0 5 0 C3.68 6.93 2.36 13.86 1 21 C0.67 21 0.34 21 0 21 C-0.08574526 16.26495622 -0.11938232 11.75210864 0.625 7.0625 C1.35828007 3.83139417 1.35828007 3.83139417 -1 1 C-0.67 0.67 -0.34 0.34 0 0 Z " fill="#8A858E" transform="translate(156,157)"/>
<path d="M0 0 C0.66 0.99 1.32 1.98 2 3 C4.6556728 3.58348752 4.6556728 3.58348752 7.625 3.6875 C8.62789062 3.75324219 9.63078125 3.81898438 10.6640625 3.88671875 C11.43492188 3.92410156 12.20578125 3.96148437 13 4 C12.67 4.99 12.34 5.98 12 7 C8.04 7 4.08 7 0 7 C-1 2 -1 2 0 0 Z " fill="#31322D" transform="translate(89,287)"/>
<path d="M0 0 C4.95 0 9.9 0 15 0 C12.75 5.625 12.75 5.625 9 8 C9 7.01 9 6.02 9 5 C8.34 4.67 7.68 4.34 7 4 C7.66 3.34 8.32 2.68 9 2 C6.03 1.67 3.06 1.34 0 1 C0 0.67 0 0.34 0 0 Z " fill="#8F8C94" transform="translate(207,56)"/>
<path d="M0 0 C2.33936818 2.12669835 3.80653848 4.06224856 5 7 C5 7.99 5 8.98 5 10 C-1.75 10.125 -1.75 10.125 -4 9 C-3.67 8.34 -3.34 7.68 -3 7 C-2.01 7 -1.02 7 0 7 C-0.185625 6.401875 -0.37125 5.80375 -0.5625 5.1875 C-1 3 -1 3 0 0 Z " fill="#70706D" transform="translate(173,292)"/>
<path d="M0 0 C-0.99 1.485 -0.99 1.485 -2 3 C-2 3.66 -2 4.32 -2 5 C-4.97 4.505 -4.97 4.505 -8 4 C-7.67 3.01 -7.34 2.02 -7 1 C-4.53721199 -0.231394 -2.7204945 -0.07159196 0 0 Z M-12 3 C-10.68 3.33 -9.36 3.66 -8 4 C-8 4.66 -8 5.32 -8 6 C-9.875 7.0625 -9.875 7.0625 -12 8 C-12.66 7.67 -13.32 7.34 -14 7 C-13.34 5.68 -12.68 4.36 -12 3 Z " fill="#3C3D37" transform="translate(197,288)"/>
<path d="M0 0 C0.8971875 0.99 0.8971875 0.99 1.8125 2 C3.87501834 4.3373846 3.87501834 4.3373846 7 4 C7 4.66 7 5.32 7 6 C6.030625 5.814375 5.06125 5.62875 4.0625 5.4375 C3.051875 5.293125 2.04125 5.14875 1 5 C0.67 5.33 0.34 5.66 0 6 C1.65 6.99 3.3 7.98 5 9 C3 10 3 10 0.6171875 9.22265625 C-0.74019531 8.64837891 -0.74019531 8.64837891 -2.125 8.0625 C-3.03507813 7.68222656 -3.94515625 7.30195313 -4.8828125 6.91015625 C-5.93082031 6.45962891 -5.93082031 6.45962891 -7 6 C-3.25 4 -3.25 4 -1 4 C-0.67 2.68 -0.34 1.36 0 0 Z " fill="#8E8791" transform="translate(189,207)"/>
<path d="M0 0 C3.45669582 -0.31424507 5.39901677 -0.37956836 8.375 1.5 C10.73613198 5.13251074 10.2854378 7.71843297 10 12 C9.01 12.495 9.01 12.495 8 13 C8 10.69 8 8.38 8 6 C7.01 5.67 6.02 5.34 5 5 C5 3.68 5 2.36 5 1 C3.35 1 1.7 1 0 1 C0 0.67 0 0.34 0 0 Z " fill="#7D7E7A" transform="translate(337,275)"/>
<path d="M0 0 C0.33 0 0.66 0 1 0 C1 4.62 1 9.24 1 14 C0.67 14 0.34 14 0 14 C-0.19456705 12.04235617 -0.38044247 10.08384679 -0.5625 8.125 C-0.66691406 7.03445312 -0.77132812 5.94390625 -0.87890625 4.8203125 C-1 2 -1 2 0 0 Z M-1 6 C-1 7.65 -1 9.3 -1 11 C-2.32 11.33 -3.64 11.66 -5 12 C-5 10.35 -5 8.7 -5 7 C-2 6 -2 6 -1 6 Z " fill="#798583" transform="translate(246,117)"/>
<path d="M0 0 C1.32 0.33 2.64 0.66 4 1 C4 3.97 4 6.94 4 10 C2.68 10 1.36 10 0 10 C0 6.7 0 3.4 0 0 Z " fill="#31322C" transform="translate(321,291)"/>
<path d="M0 0 C0.33 3.3 0.66 6.6 1 10 C-2 10 -2 10 -4 9 C-4 6.36 -4 3.72 -4 1 C-1 0 -1 0 0 0 Z " fill="#31322D" transform="translate(358,287)"/>
<path d="M0 0 C-0.33 0.66 -0.66 1.32 -1 2 C0.32 2.33 1.64 2.66 3 3 C1.71211992 3.53012738 0.41953322 4.0488329 -0.875 4.5625 C-1.95394531 4.99755859 -1.95394531 4.99755859 -3.0546875 5.44140625 C-5 6 -5 6 -7 5 C-7 3.35 -7 1.7 -7 0 C-3.98968256 -0.93423645 -3.13349732 -1.04449911 0 0 Z " fill="#68626D" transform="translate(251,210)"/>
<path d="M0 0 C3.3 0 6.6 0 10 0 C8.515 1.485 8.515 1.485 7 3 C7.66 3.66 8.32 4.32 9 5 C6.36 5 3.72 5 1 5 C0.67 3.35 0.34 1.7 0 0 Z " fill="#41423D" transform="translate(94,275)"/>
<path d="M0 0 C1.134375 0.020625 2.26875 0.04125 3.4375 0.0625 C3.7675 1.0525 4.0975 2.0425 4.4375 3.0625 C3 5.75 3 5.75 1.4375 8.0625 C0.4375 6.0625 0.4375 6.0625 0.4375 3.0625 C-0.8825 3.0625 -2.2025 3.0625 -3.5625 3.0625 C-3.8925 4.0525 -4.2225 5.0425 -4.5625 6.0625 C-5.2225 6.0625 -5.8825 6.0625 -6.5625 6.0625 C-4.25951087 0.07472826 -4.25951087 0.07472826 0 0 Z " fill="#979795" transform="translate(173.5625,273.9375)"/>
<path d="M0 0 C8.25 0 16.5 0 25 0 C25 1.32 25 2.64 25 4 C23.68 3.67 22.36 3.34 21 3 C21.33 2.34 21.66 1.68 22 1 C14.74 1 7.48 1 0 1 C0 0.67 0 0.34 0 0 Z " fill="#3B3C37" transform="translate(54,275)"/>
<path d="M0 0 C0.33 0.66 0.66 1.32 1 2 C2.98 2 4.96 2 7 2 C5.02 2.99 5.02 2.99 3 4 C7.29 4.33 11.58 4.66 16 5 C16 5.33 16 5.66 16 6 C10.39 6 4.78 6 -1 6 C-1 1 -1 1 0 0 Z " fill="#838480" transform="translate(190,291)"/>
<path d="M0 0 C0 1.32 0 2.64 0 4 C-1.65 4.33 -3.3 4.66 -5 5 C-5 4.01 -5 3.02 -5 2 C-5.33 2.66 -5.66 3.32 -6 4 C-8.0625 4.625 -8.0625 4.625 -10 5 C-9.67 3.68 -9.34 2.36 -9 1 C-2.25 -1.125 -2.25 -1.125 0 0 Z " fill="#48414F" transform="translate(189,93)"/>
<path d="M0 0 C0.33 0.66 0.66 1.32 1 2 C0.00390625 4.1640625 0.00390625 4.1640625 -1.4375 6.625 C-1.91058594 7.44226563 -2.38367188 8.25953125 -2.87109375 9.1015625 C-3.24363281 9.72804688 -3.61617187 10.35453125 -4 11 C-6 8 -6 8 -7 5 C-6.34 5 -5.68 5 -5 5 C-5 4.34 -5 3.68 -5 3 C-2.5 1.375 -2.5 1.375 0 0 Z " fill="#78727C" transform="translate(176,118)"/>
<path d="M0 0 C0 1.98 0 3.96 0 6 C-0.99 5.67 -1.98 5.34 -3 5 C-3 4.34 -3 3.68 -3 3 C-4.98 3 -6.96 3 -9 3 C-9 2.34 -9 1.68 -9 1 C-5.8035914 -0.06546953 -3.34252724 -0.07427838 0 0 Z " fill="#47464D" transform="translate(243,116)"/>
<path d="M0 0 C0 3.60297389 -1.1785171 4.96419516 -3 8 C-3 8.99 -3 9.98 -3 11 C-3.66 11.66 -4.32 12.32 -5 13 C-5 12.34 -5 11.68 -5 11 C-6.98 11.99 -6.98 11.99 -9 13 C-7.47987323 7.59510481 -3.72614782 4.01507372 0 0 Z " fill="#928D97" transform="translate(158,81)"/>
<path d="M0 0 C0.66 0 1.32 0 2 0 C2.36923077 5.53846154 2.36923077 5.53846154 0.5 7.875 C-0.2425 8.431875 -0.2425 8.431875 -1 9 C-2.32 8.34 -3.64 7.68 -5 7 C-4.01 6.34 -3.02 5.68 -2 5 C-0.79549696 2.44816596 -0.79549696 2.44816596 0 0 Z " fill="#48434D" transform="translate(228,113)"/>
<path d="M0 0 C0 0.66 0 1.32 0 2 C-0.63808594 2.19335938 -1.27617187 2.38671875 -1.93359375 2.5859375 C-3.17302734 2.97652344 -3.17302734 2.97652344 -4.4375 3.375 C-5.67306641 3.75785156 -5.67306641 3.75785156 -6.93359375 4.1484375 C-9.17798016 4.80882227 -9.17798016 4.80882227 -10 7 C-13.0625 7.625 -13.0625 7.625 -16 8 C-15 5 -15 5 -13.07421875 3.8671875 C-12.28660156 3.53976562 -11.49898437 3.21234375 -10.6875 2.875 C-9.90761719 2.54242188 -9.12773437 2.20984375 -8.32421875 1.8671875 C-5.52166442 0.82152857 -3.00180402 0 0 0 Z " fill="#949592" transform="translate(199,285)"/>
<path d="M0 0 C2.97 0 5.94 0 9 0 C10.25541557 3.76624671 9.37061958 5.37188934 8 9 C7.67 9 7.34 9 7 9 C6.67 7.02 6.34 5.04 6 3 C3.69 2.67 1.38 2.34 -1 2 C-0.67 1.34 -0.34 0.68 0 0 Z " fill="#8A848D" transform="translate(165,109)"/>
<path d="M0 0 C0.66 0.33 1.32 0.66 2 1 C0.625 3 0.625 3 -1 5 C-1.66 5 -2.32 5 -3 5 C-3 5.99 -3 6.98 -3 8 C-1.02 8 0.96 8 3 8 C2.67 8.66 2.34 9.32 2 10 C0.33388095 10.042721 -1.33382885 10.04063832 -3 10 C-3.33 9.67 -3.66 9.34 -4 9 C-3.75 5.5625 -3.75 5.5625 -3 2 C-2.01 1.34 -1.02 0.68 0 0 Z " fill="#A1A19F" transform="translate(186,275)"/>
<path d="M0 0 C0.66 0.33 1.32 0.66 2 1 C2.25 3.8125 2.25 3.8125 2 7 C0 8.875 0 8.875 -2 10 C-2.66 9.67 -3.32 9.34 -4 9 C-3.34 8.01 -2.68 7.02 -2 6 C-1.29835358 4.01200182 -0.62627128 2.01301483 0 0 Z " fill="#4D4550" transform="translate(175,111)"/>
<path d="M0 0 C0 2.31 0 4.62 0 7 C-1.65 7 -3.3 7 -5 7 C-4.6875 4.625 -4.6875 4.625 -4 2 C-1 0 -1 0 0 0 Z " fill="#32332E" transform="translate(302,294)"/>
<path d="M0 0 C2.97 0 5.94 0 9 0 C9 0.99 9 1.98 9 3 C6.03 3 3.06 3 0 3 C0 2.01 0 1.02 0 0 Z " fill="#525D5A" transform="translate(234,131)"/>
<path d="M0 0 C1.7074998 1.28062485 3.37373596 2.61767557 5 4 C5 4.66 5 5.32 5 6 C3.02 6.66 1.04 7.32 -1 8 C-1.33 7.34 -1.66 6.68 -2 6 C-1.34 6 -0.68 6 0 6 C0 4.02 0 2.04 0 0 Z " fill="#726C75" transform="translate(276,80)"/>
<path d="M0 0 C1.98 0.99 1.98 0.99 4 2 C4 2.99 4 3.98 4 5 C2.68 4.34 1.36 3.68 0 3 C0 2.01 0 1.02 0 0 Z M-2 3 C-1.34 3.33 -0.68 3.66 0 4 C-0.33 5.65 -0.66 7.3 -1 9 C-2.32 7.35 -3.64 5.7 -5 4 C-4.01 3.67 -3.02 3.34 -2 3 Z " fill="#8A8B86" transform="translate(168,287)"/>
<path d="M0 0 C0.66 0.99 1.32 1.98 2 3 C2.66 2.67 3.32 2.34 4 2 C3.6875 3.9375 3.6875 3.9375 3 6 C2.01 6.33 1.02 6.66 0 7 C-0.33 7.99 -0.66 8.98 -1 10 C-2.46726798 6.18510326 -1.43336419 3.70988378 0 0 Z " fill="#726C77" transform="translate(168,150)"/>
<path d="M0 0 C0.66 0 1.32 0 2 0 C3.625 2 3.625 2 5 4 C4.34 5.32 3.68 6.64 3 8 C2.01 7.67 1.02 7.34 0 7 C0 4.69 0 2.38 0 0 Z " fill="#4A444F" transform="translate(221,127)"/>
<path d="M0 0 C1.32 0.66 2.64 1.32 4 2 C3.34 3.65 2.68 5.3 2 7 C1.01 7 0.02 7 -1 7 C-1.04254356 5.00045254 -1.04080783 2.99958364 -1 1 C-0.67 0.67 -0.34 0.34 0 0 Z " fill="#48424D" transform="translate(178,80)"/>
<path d="M0 0 C0.99 0 1.98 0 3 0 C2.67 1.65 2.34 3.3 2 5 C0.68 5.33 -0.64 5.66 -2 6 C-2 4.68 -2 3.36 -2 2 C-1.34 2 -0.68 2 0 2 C0 1.34 0 0.68 0 0 Z " fill="#33342E" transform="translate(92,276)"/>
<path d="M0 0 C0.33 0 0.66 0 1 0 C1 1.65 1 3.3 1 5 C2.65 5 4.3 5 6 5 C4 7 4 7 1.375 7.125 C0.59125 7.08375 -0.1925 7.0425 -1 7 C-1.625 5.1875 -1.625 5.1875 -2 3 C-1.34 2.01 -0.68 1.02 0 0 Z M6 4 C8 5 8 5 8 5 Z " fill="#46454C" transform="translate(228,134)"/>
<path d="M0 0 C0.66 1.32 1.32 2.64 2 4 C-0.68841859 6.25245881 -2.64641875 7.88213958 -6 9 C-4.47291037 5.56404834 -2.40072955 2.88087546 0 0 Z " fill="#8D8690" transform="translate(213,74)"/>
<path d="M0 0 C3.63 0 7.26 0 11 0 C11 1.65 11 3.3 11 5 C10.34 5 9.68 5 9 5 C8.67 4.01 8.34 3.02 8 2 C3.34947128 1.73067479 3.34947128 1.73067479 -1 3 C-0.67 2.01 -0.34 1.02 0 0 Z " fill="#A1A39E" transform="translate(190,280)"/>
<path d="M0 0 C0.66 0.33 1.32 0.66 2 1 C1.21625 1.763125 0.4325 2.52625 -0.375 3.3125 C-3.07257717 5.90891805 -3.07257717 5.90891805 -5 9 C-5.3125 6.1875 -5.3125 6.1875 -5 3 C-2.625 1.0625 -2.625 1.0625 0 0 Z " fill="#60605C" transform="translate(358,276)"/>
<path d="M0 0 C0.66 0.33 1.32 0.66 2 1 C2 1.66 2 2.32 2 3 C2.99 3.33 3.98 3.66 5 4 C3.88625 4.12375 2.7725 4.2475 1.625 4.375 C-2.03103677 4.6465813 -2.03103677 4.6465813 -4 7 C-4 5.35 -4 3.7 -4 2 C-2.125 0.9375 -2.125 0.9375 0 0 Z " fill="#43443F" transform="translate(192,276)"/>
<path d="M0 0 C2.64 0 5.28 0 8 0 C8 1.32 8 2.64 8 4 C5.69 3.67 3.38 3.34 1 3 C0.67 2.01 0.34 1.02 0 0 Z " fill="#32332D" transform="translate(364,275)"/>
<path d="M0 0 C2.35953094 2.35953094 2.49141413 3.77895617 3 7 C1.68 7.33 0.36 7.66 -1 8 C-1.93065133 5.39417629 -2.14917407 4.35801776 -1.0625 1.75 C-0.711875 1.1725 -0.36125 0.595 0 0 Z " fill="#899E94" transform="translate(219,128)"/>
<path d="M0 0 C0.12375 0.61875 0.2475 1.2375 0.375 1.875 C0.87197356 4.19120832 0.87197356 4.19120832 3 6 C2.34 6.66 1.68 7.32 1 8 C1.66 8.66 2.32 9.32 3 10 C1.68 9.67 0.36 9.34 -1 9 C-1.80967438 6.08517222 -2.21845993 4.53886783 -1.0625 1.6875 C-0.711875 1.130625 -0.36125 0.57375 0 0 Z " fill="#A39FA7" transform="translate(176,130)"/>
<path d="M0 0 C0.33 0.99 0.66 1.98 1 3 C-0.65 4.32 -2.3 5.64 -4 7 C-4.6875 5.1875 -4.6875 5.1875 -5 3 C-3.38441968 0.84589291 -2.74502455 0 0 0 Z " fill="#6D6871" transform="translate(215,62)"/>
<path d="M0 0 C1.60495567 0.11442461 3.20898119 0.24194694 4.8125 0.375 C5.70582031 0.44460937 6.59914062 0.51421875 7.51953125 0.5859375 C10 1 10 1 13 3 C10.69 3.33 8.38 3.66 6 4 C6 3.34 6 2.68 6 2 C3.03 1.505 3.03 1.505 0 1 C0 0.67 0 0.34 0 0 Z " fill="#959198" transform="translate(229,57)"/>
<path d="M0 0 C1.1875 1.625 1.1875 1.625 2 4 C0.625 7.25 0.625 7.25 -1 10 C-1.33 10 -1.66 10 -2 10 C-2.17942163 6.05272412 -2.09350689 3.4019487 0 0 Z " fill="#807C83" transform="translate(292,167)"/>
<path d="M0 0 C0.6875 1.75 0.6875 1.75 1 4 C-0.375 6.125 -0.375 6.125 -2 8 C-2.33 8.66 -2.66 9.32 -3 10 C-3.66 10 -4.32 10 -5 10 C-3.66511872 6.40608886 -2.03977277 3.24509304 0 0 Z " fill="#87848B" transform="translate(191,104)"/>
<path d="M0 0 C0.99 0.495 0.99 0.495 2 1 C2 2.65 2 4.3 2 6 C2.99 6.33 3.98 6.66 5 7 C4.01 8.485 4.01 8.485 3 10 C2.34 10 1.68 10 1 10 C0.67 6.7 0.34 3.4 0 0 Z " fill="#A09BA4" transform="translate(178,102)"/>
<path d="M0 0 C0.33 0 0.66 0 1 0 C1.33 2.31 1.66 4.62 2 7 C2.99 7 3.98 7 5 7 C4.67 8.32 4.34 9.64 4 11 C3.34 11 2.68 11 2 11 C-0.32590854 7.36576791 -0.16265833 4.22911669 0 0 Z " fill="#7C7880" transform="translate(175,80)"/>
<path d="M0 0 C1.32 0 2.64 0 4 0 C3.67 1.65 3.34 3.3 3 5 C1.68 4.34 0.36 3.68 -1 3 C-0.67 2.01 -0.34 1.02 0 0 Z " fill="#CA252A" transform="translate(261,147)"/>
<path d="M0 0 C0.99 0.33 1.98 0.66 3 1 C2 4 2 4 -1.0625 5.6875 C-2.031875 6.120625 -3.00125 6.55375 -4 7 C-2.92598892 4.08482708 -2.22189824 2.22189824 0 0 Z " fill="#7E7C85" transform="translate(200,91)"/>
<path d="M0 0 C1.32 0 2.64 0 4 0 C3.67 2.31 3.34 4.62 3 7 C1.68 5.68 0.36 4.36 -1 3 C-0.67 2.01 -0.34 1.02 0 0 Z " fill="#535158" transform="translate(224,134)"/>
<path d="M0 0 C0.33 0.66 0.66 1.32 1 2 C-0.32 3.65 -1.64 5.3 -3 7 C-3.66 6.67 -4.32 6.34 -5 6 C-5 5.01 -5 4.02 -5 3 C-4.01 3 -3.02 3 -2 3 C-2 2.34 -2 1.68 -2 1 C-1.34 0.67 -0.68 0.34 0 0 Z " fill="#878882" transform="translate(381,294)"/>
<path d="M0 0 C2.50037734 2.17424117 3.43628586 3.73045798 4 7 C2.68 7 1.36 7 0 7 C-0.93423645 3.98968256 -1.04449911 3.13349732 0 0 Z " fill="#7A7B76" transform="translate(173,292)"/>
<path d="M0 0 C0.33 0.99 0.66 1.98 1 3 C-0.32 3.99 -1.64 4.98 -3 6 C-3.66 5.67 -4.32 5.34 -5 5 C-4 2 -4 2 -1.9375 0.8125 C-1.298125 0.544375 -0.65875 0.27625 0 0 Z " fill="#4C4651" transform="translate(196,84)"/>
<path d="M0 0 C0.33 0.66 0.66 1.32 1 2 C2.98 2 4.96 2 7 2 C4.35261084 3.4606285 3.10551666 4 0 4 C-0.33 4.66 -0.66 5.32 -1 6 C-1.042721 4.33388095 -1.04063832 2.66617115 -1 1 C-0.67 0.67 -0.34 0.34 0 0 Z " fill="#797974" transform="translate(190,291)"/>
<path d="M0 0 C1.0326802 2.78823655 1.04509293 3.8677274 0.0625 6.75 C-0.288125 7.4925 -0.63875 8.235 -1 9 C-1.33 9 -1.66 9 -2 9 C-2 6.36 -2 3.72 -2 1 C-1.34 0.67 -0.68 0.34 0 0 Z " fill="#585B5F" transform="translate(222,121)"/>
<path d="" fill="#FFFFFF" transform="translate(0,0)"/>
<path d="" fill="#FFFFFF" transform="translate(0,0)"/>
<path d="" fill="#FFFFFF" transform="translate(0,0)"/>
<path d="" fill="#FFFFFF" transform="translate(0,0)"/>
<path d="" fill="#FFFFFF" transform="translate(0,0)"/>
<path d="" fill="#FFFFFF" transform="translate(0,0)"/>
<path d="" fill="#FFFFFF" transform="translate(0,0)"/>
<path d="" fill="#FFFFFF" transform="translate(0,0)"/>
<path d="" fill="#FFFFFF" transform="translate(0,0)"/>
<path d="" fill="#FFFFFF" transform="translate(0,0)"/>
<path d="" fill="#FFFFFF" transform="translate(0,0)"/>
<path d="" fill="#FFFFFF" transform="translate(0,0)"/>
<path d="" fill="#FFFFFF" transform="translate(0,0)"/>
<path d="" fill="#FFFFFF" transform="translate(0,0)"/>
<path d="" fill="#FFFFFF" transform="translate(0,0)"/>
<path d="" fill="#FFFFFF" transform="translate(0,0)"/>
<path d="" fill="#FFFFFF" transform="translate(0,0)"/>
<path d="" fill="#FFFFFF" transform="translate(0,0)"/>
<path d="" fill="#FFFFFF" transform="translate(0,0)"/>
<path d="" fill="#FFFFFF" transform="translate(0,0)"/>
<path d="" fill="#FFFFFF" transform="translate(0,0)"/>
<path d="" fill="#FFFFFF" transform="translate(0,0)"/>
<path d="" fill="#FFFFFF" transform="translate(0,0)"/>
<path d="" fill="#FFFFFF" transform="translate(0,0)"/>
<path d="" fill="#FFFFFF" transform="translate(0,0)"/>
<path d="" fill="#FFFFFF" transform="translate(0,0)"/>
<path d="" fill="#FFFFFF" transform="translate(0,0)"/>
<path d="" fill="#FFFFFF" transform="translate(0,0)"/>
<path d="" fill="#FFFFFF" transform="translate(0,0)"/>
<path d="" fill="#FFFFFF" transform="translate(0,0)"/>
<path d="" fill="#FFFFFF" transform="translate(0,0)"/>
<path d="" fill="#FFFFFF" transform="translate(0,0)"/>
<path d="" fill="#FFFFFF" transform="translate(0,0)"/>
<path d="" fill="#FFFFFF" transform="translate(0,0)"/>
<path d="" fill="#FFFFFF" transform="translate(0,0)"/>
<path d="" fill="#FFFFFF" transform="translate(0,0)"/>
<path d="" fill="#FFFFFF" transform="translate(0,0)"/>
<path d="" fill="#FFFFFF" transform="translate(0,0)"/>
<path d="" fill="#FFFFFF" transform="translate(0,0)"/>
<path d="" fill="#FFFFFF" transform="translate(0,0)"/>
<path d="" fill="#FFFFFF" transform="translate(0,0)"/>
<path d="" fill="#FFFFFF" transform="translate(0,0)"/>
<path d="" fill="#FFFFFF" transform="translate(0,0)"/>
<path d="" fill="#FFFFFF" transform="translate(0,0)"/>
<path d="" fill="#FFFFFF" transform="translate(0,0)"/>
<path d="" fill="#FFFFFF" transform="translate(0,0)"/>
<path d="" fill="#FFFFFF" transform="translate(0,0)"/>
<path d="" fill="#FFFFFF" transform="translate(0,0)"/>
<path d="" fill="#FFFFFF" transform="translate(0,0)"/>
<path d="" fill="#FFFFFF" transform="translate(0,0)"/>
<path d="" fill="#FFFFFF" transform="translate(0,0)"/>
<path d="" fill="#FFFFFF" transform="translate(0,0)"/>
<path d="" fill="#FFFFFF" transform="translate(0,0)"/>
<path d="" fill="#FFFFFF" transform="translate(0,0)"/>
<path d="" fill="#FFFFFF" transform="translate(0,0)"/>
<path d="" fill="#FFFFFF" transform="translate(0,0)"/>
<path d="" fill="#FFFFFF" transform="translate(0,0)"/>
<path d="" fill="#FFFFFF" transform="translate(0,0)"/>
<path d="" fill="#FFFFFF" transform="translate(0,0)"/>
<path d="" fill="#FFFFFF" transform="translate(0,0)"/>
<path d="" fill="#FFFFFF" transform="translate(0,0)"/>
<path d="" fill="#FFFFFF" transform="translate(0,0)"/>
<path d="" fill="#FFFFFF" transform="translate(0,0)"/>
<path d="" fill="#FFFFFF" transform="translate(0,0)"/>
</svg>
